solid button
facet normal -3.524958103184872e-17 1.0 -4.866529595691362e-49
  outer loop
    vertex -2.0000000000000004 -0.9000000000000002 0.9999999999999999
    vertex 7.999999999999999 -0.8999999999999999 -4.999999999999999
    vertex -2.0000000000000004 -0.9000000000000002 -4.999999999999999
  endloop
endfacet
facet normal -3.524958103184872e-17 1.0 -4.866529595691362e-49
  outer loop
    vertex 7.999999999999999 -0.8999999999999999 -4.999999999999999
    vertex -2.0000000000000004 -0.9000000000000002 0.9999999999999999
    vertex 7.999999999999999 -0.8999999999999999 0.9999999999999999
  endloop
endfacet
facet normal -1.0 1.0239164014013229e-16 1.5106963299363661e-16
  outer loop
    vertex -1.9999999999999998 7.8999999999999995 1.9999999999999998
    vertex -2.0000000000000004 -0.9000000000000002 0.9999999999999999
    vertex -1.9999999999999998 -1.8999999999999997 1.9999999999999998
  endloop
endfacet
facet normal -1.0 1.0239164014013229e-16 1.5106963299363661e-16
  outer loop
    vertex -2.0000000000000004 -0.9000000000000002 0.9999999999999999
    vertex -1.9999999999999998 7.8999999999999995 1.9999999999999998
    vertex -1.9999999999999998 6.9 0.9999999999999999
  endloop
endfacet
facet normal -1.0 1.0239164014013229e-16 1.5106963299363661e-16
  outer loop
    vertex -1.9999999999999998 6.9 0.9999999999999999
    vertex -1.9999999999999998 7.8999999999999995 1.9999999999999998
    vertex -1.9999999999999998 6.9 -4.999999999999999
  endloop
endfacet
facet normal -1.0 1.0239164014013229e-16 1.5106963299363661e-16
  outer loop
    vertex -2.0000000000000036 -1.900000000000004 -5.999999999999962
    vertex -2.0000000000000004 -0.9000000000000002 -4.999999999999999
    vertex -1.9999999999999998 7.8999999999999995 -5.999999999999999
  endloop
endfacet
facet normal -1.0 1.0239164014013229e-16 1.5106963299363661e-16
  outer loop
    vertex -2.0000000000000004 -0.9000000000000002 -4.999999999999999
    vertex -2.0000000000000036 -1.900000000000004 -5.999999999999962
    vertex -1.9999999999999998 -1.8999999999999997 1.9999999999999998
  endloop
endfacet
facet normal -1.0 1.0239164014013229e-16 1.5106963299363661e-16
  outer loop
    vertex -2.0000000000000004 -0.9000000000000002 -4.999999999999999
    vertex -1.9999999999999998 -1.8999999999999997 1.9999999999999998
    vertex -2.0000000000000004 -0.9000000000000002 0.9999999999999999
  endloop
endfacet
facet normal -1.0 1.0239164014013229e-16 1.5106963299363661e-16
  outer loop
    vertex -1.9999999999999998 7.8999999999999995 -5.999999999999999
    vertex -2.0000000000000004 -0.9000000000000002 -4.999999999999999
    vertex -1.9999999999999998 6.9 -4.999999999999999
  endloop
endfacet
facet normal -1.0 1.0239164014013229e-16 1.5106963299363661e-16
  outer loop
    vertex -1.9999999999999998 7.8999999999999995 -5.999999999999999
    vertex -1.9999999999999998 6.9 -4.999999999999999
    vertex -1.9999999999999998 7.8999999999999995 1.9999999999999998
  endloop
endfacet
facet normal 0.0 1.0 0.0
  outer loop
    vertex -1.9999999999999998 7.8999999999999995 1.9999999999999998
    vertex 7.999999999999999 7.8999999999999995 -5.999999999999999
    vertex -1.9999999999999998 7.8999999999999995 -5.999999999999999
  endloop
endfacet
facet normal 0.0 1.0 0.0
  outer loop
    vertex 7.999999999999999 7.8999999999999995 -5.999999999999999
    vertex -1.9999999999999998 7.8999999999999995 1.9999999999999998
    vertex 7.999999999999999 7.8999999999999995 1.9999999999999998
  endloop
endfacet
facet normal 0.0 0.0 -1.0
  outer loop
    vertex -1.9999999999999998 7.8999999999999995 -5.999999999999999
    vertex 7.999999999999999 -1.900000000000011 -5.999999999999962
    vertex -2.0000000000000036 -1.900000000000004 -5.999999999999962
  endloop
endfacet
facet normal 0.0 0.0 -1.0
  outer loop
    vertex 7.999999999999999 -1.900000000000011 -5.999999999999962
    vertex -1.9999999999999998 7.8999999999999995 -5.999999999999999
    vertex 7.999999999999999 7.8999999999999995 -5.999999999999999
  endloop
endfacet
facet normal 1.0 -0.0 -0.0
  outer loop
    vertex 7.999999999999999 -1.900000000000011 -5.999999999999962
    vertex 7.999999999999999 -0.8999999999999999 -4.999999999999999
    vertex 7.999999999999999 -1.8999999999999997 1.9999999999999998
  endloop
endfacet
facet normal 1.0 -0.0 -0.0
  outer loop
    vertex 7.999999999999999 -0.8999999999999999 -4.999999999999999
    vertex 7.999999999999999 -1.900000000000011 -5.999999999999962
    vertex 7.999999999999999 7.8999999999999995 -5.999999999999999
  endloop
endfacet
facet normal 1.0 -0.0 -0.0
  outer loop
    vertex 7.999999999999999 -0.8999999999999999 -4.999999999999999
    vertex 7.999999999999999 7.8999999999999995 -5.999999999999999
    vertex 7.999999999999999 6.9 -4.999999999999999
  endloop
endfacet
facet normal 1.0 -0.0 -0.0
  outer loop
    vertex 7.999999999999999 -1.8999999999999997 1.9999999999999998
    vertex 7.999999999999999 -0.8999999999999999 0.9999999999999999
    vertex 7.999999999999999 7.8999999999999995 1.9999999999999998
  endloop
endfacet
facet normal 1.0 -0.0 -0.0
  outer loop
    vertex 7.999999999999999 -0.8999999999999999 0.9999999999999999
    vertex 7.999999999999999 -1.8999999999999997 1.9999999999999998
    vertex 7.999999999999999 -0.8999999999999999 -4.999999999999999
  endloop
endfacet
facet normal 1.0 -0.0 -0.0
  outer loop
    vertex 7.999999999999999 7.8999999999999995 1.9999999999999998
    vertex 7.999999999999999 -0.8999999999999999 0.9999999999999999
    vertex 7.999999999999999 6.899999999999993 0.9999999999999999
  endloop
endfacet
facet normal 1.0 -0.0 -0.0
  outer loop
    vertex 7.999999999999999 7.8999999999999995 1.9999999999999998
    vertex 7.999999999999999 6.899999999999993 0.9999999999999999
    vertex 7.999999999999999 6.9 -4.999999999999999
  endloop
endfacet
facet normal 1.0 -0.0 -0.0
  outer loop
    vertex 7.999999999999999 7.8999999999999995 1.9999999999999998
    vertex 7.999999999999999 6.9 -4.999999999999999
    vertex 7.999999999999999 7.8999999999999995 -5.999999999999999
  endloop
endfacet
facet normal -3.524958103184872e-16 -1.0 -5.874930171974787e-16
  outer loop
    vertex 7.999999999999999 6.899999999999993 0.9999999999999999
    vertex -1.9999999999999998 6.9 -4.999999999999999
    vertex 7.999999999999999 6.9 -4.999999999999999
  endloop
endfacet
facet normal -3.524958103184872e-16 -1.0 -5.874930171974787e-16
  outer loop
    vertex -1.9999999999999998 6.9 -4.999999999999999
    vertex 7.999999999999999 6.899999999999993 0.9999999999999999
    vertex -1.9999999999999998 6.9 0.9999999999999999
  endloop
endfacet
facet normal -0.0 -0.0 1.0
  outer loop
    vertex -1.9999999999999998 -1.8999999999999997 1.9999999999999998
    vertex -0.3807403920117379 2.094133342141175 1.9999999999999998
    vertex -1.9999999999999998 7.8999999999999995 1.9999999999999998
  endloop
endfacet
facet normal -0.0 -0.0 1.0
  outer loop
    vertex -0.3807403920117379 2.094133342141175 1.9999999999999998
    vertex -1.9999999999999998 -1.8999999999999997 1.9999999999999998
    vertex -0.031088913245534484 1.2499999999999991 1.9999999999999998
  endloop
endfacet
facet normal -0.0 -0.0 1.0
  outer loop
    vertex -0.031088913245534484 1.2499999999999991 1.9999999999999998
    vertex -1.9999999999999998 -1.8999999999999997 1.9999999999999998
    vertex 0.5251262658470847 0.5251262658470829 1.9999999999999998
  endloop
endfacet
facet normal -0.0 -0.0 1.0
  outer loop
    vertex 0.5251262658470847 0.5251262658470829 1.9999999999999998
    vertex -1.9999999999999998 -1.8999999999999997 1.9999999999999998
    vertex 1.2500000000000002 -0.031088913245535543 1.9999999999999998
  endloop
endfacet
facet normal -0.0 -0.0 1.0
  outer loop
    vertex 1.2500000000000002 -0.031088913245535543 1.9999999999999998
    vertex -1.9999999999999998 -1.8999999999999997 1.9999999999999998
    vertex 2.0941333421411783 -0.380740392011739 1.9999999999999998
  endloop
endfacet
facet normal -0.0 -0.0 1.0
  outer loop
    vertex 2.0941333421411783 -0.380740392011739 1.9999999999999998
    vertex -1.9999999999999998 -1.8999999999999997 1.9999999999999998
    vertex 7.999999999999999 -1.8999999999999997 1.9999999999999998
  endloop
endfacet
facet normal -0.0 -0.0 1.0
  outer loop
    vertex -1.9999999999999998 7.8999999999999995 1.9999999999999998
    vertex -0.3807403920117379 2.094133342141175 1.9999999999999998
    vertex -0.4999999999999998 2.9999999999999996 1.9999999999999998
  endloop
endfacet
facet normal -0.0 -0.0 1.0
  outer loop
    vertex 2.0941333421411783 -0.380740392011739 1.9999999999999998
    vertex 7.999999999999999 -1.8999999999999997 1.9999999999999998
    vertex 2.9999999999999996 -0.49999999999999944 1.9999999999999998
  endloop
endfacet
facet normal -0.0 -0.0 1.0
  outer loop
    vertex 2.9999999999999996 -0.49999999999999944 1.9999999999999998
    vertex 7.999999999999999 -1.8999999999999997 1.9999999999999998
    vertex 3.9058666578588226 -0.3807403920117383 1.9999999999999998
  endloop
endfacet
facet normal -0.0 -0.0 1.0
  outer loop
    vertex 3.9058666578588226 -0.3807403920117383 1.9999999999999998
    vertex 7.999999999999999 -1.8999999999999997 1.9999999999999998
    vertex 4.75 -0.031088913245534484 1.9999999999999998
  endloop
endfacet
facet normal -0.0 -0.0 1.0
  outer loop
    vertex 4.75 -0.031088913245534484 1.9999999999999998
    vertex 7.999999999999999 -1.8999999999999997 1.9999999999999998
    vertex 5.474873734152915 0.525126265847084 1.9999999999999998
  endloop
endfacet
facet normal -0.0 -0.0 1.0
  outer loop
    vertex 5.474873734152915 0.525126265847084 1.9999999999999998
    vertex 7.999999999999999 -1.8999999999999997 1.9999999999999998
    vertex 6.031088913245535 1.2500000000000004 1.9999999999999998
  endloop
endfacet
facet normal -0.0 -0.0 1.0
  outer loop
    vertex 6.031088913245535 1.2500000000000004 1.9999999999999998
    vertex 7.999999999999999 -1.8999999999999997 1.9999999999999998
    vertex 6.380740392011738 2.0941333421411774 1.9999999999999998
  endloop
endfacet
facet normal -0.0 -0.0 1.0
  outer loop
    vertex 6.380740392011738 2.0941333421411774 1.9999999999999998
    vertex 7.999999999999999 -1.8999999999999997 1.9999999999999998
    vertex 6.499999999999999 3.0 1.9999999999999998
  endloop
endfacet
facet normal -0.0 -0.0 1.0
  outer loop
    vertex -1.9999999999999998 7.8999999999999995 1.9999999999999998
    vertex 2.0941333421411747 6.380740392011737 1.9999999999999998
    vertex 7.999999999999999 7.8999999999999995 1.9999999999999998
  endloop
endfacet
facet normal -0.0 -0.0 1.0
  outer loop
    vertex 2.0941333421411747 6.380740392011737 1.9999999999999998
    vertex -1.9999999999999998 7.8999999999999995 1.9999999999999998
    vertex 1.2499999999999987 6.031088913245534 1.9999999999999998
  endloop
endfacet
facet normal -0.0 -0.0 1.0
  outer loop
    vertex 1.2499999999999987 6.031088913245534 1.9999999999999998
    vertex -1.9999999999999998 7.8999999999999995 1.9999999999999998
    vertex 0.5251262658470833 5.474873734152916 1.9999999999999998
  endloop
endfacet
facet normal -0.0 -0.0 1.0
  outer loop
    vertex 0.5251262658470833 5.474873734152916 1.9999999999999998
    vertex -1.9999999999999998 7.8999999999999995 1.9999999999999998
    vertex -0.031088913245536597 4.749999999999997 1.9999999999999998
  endloop
endfacet
facet normal -0.0 -0.0 1.0
  outer loop
    vertex -0.031088913245536597 4.749999999999997 1.9999999999999998
    vertex -1.9999999999999998 7.8999999999999995 1.9999999999999998
    vertex -0.38074039201173937 3.9058666578588213 1.9999999999999998
  endloop
endfacet
facet normal -0.0 -0.0 1.0
  outer loop
    vertex -0.38074039201173937 3.9058666578588213 1.9999999999999998
    vertex -1.9999999999999998 7.8999999999999995 1.9999999999999998
    vertex -0.4999999999999998 2.9999999999999996 1.9999999999999998
  endloop
endfacet
facet normal -0.0 -0.0 1.0
  outer loop
    vertex 7.999999999999999 7.8999999999999995 1.9999999999999998
    vertex 2.0941333421411747 6.380740392011737 1.9999999999999998
    vertex 3.0 6.499999999999999 1.9999999999999998
  endloop
endfacet
facet normal -0.0 -0.0 1.0
  outer loop
    vertex 7.999999999999999 7.8999999999999995 1.9999999999999998
    vertex 3.0 6.499999999999999 1.9999999999999998
    vertex 3.905866657858822 6.380740392011738 1.9999999999999998
  endloop
endfacet
facet normal -0.0 -0.0 1.0
  outer loop
    vertex 7.999999999999999 7.8999999999999995 1.9999999999999998
    vertex 3.905866657858822 6.380740392011738 1.9999999999999998
    vertex 4.749999999999999 6.031088913245535 1.9999999999999998
  endloop
endfacet
facet normal -0.0 -0.0 1.0
  outer loop
    vertex 7.999999999999999 7.8999999999999995 1.9999999999999998
    vertex 4.749999999999999 6.031088913245535 1.9999999999999998
    vertex 5.474873734152916 5.474873734152916 1.9999999999999998
  endloop
endfacet
facet normal -0.0 -0.0 1.0
  outer loop
    vertex 7.999999999999999 7.8999999999999995 1.9999999999999998
    vertex 5.474873734152916 5.474873734152916 1.9999999999999998
    vertex 6.031088913245535 4.75 1.9999999999999998
  endloop
endfacet
facet normal -0.0 -0.0 1.0
  outer loop
    vertex 7.999999999999999 7.8999999999999995 1.9999999999999998
    vertex 6.031088913245535 4.75 1.9999999999999998
    vertex 6.380740392011738 3.9058666578588226 1.9999999999999998
  endloop
endfacet
facet normal -0.0 -0.0 1.0
  outer loop
    vertex 7.999999999999999 7.8999999999999995 1.9999999999999998
    vertex 6.380740392011738 3.9058666578588226 1.9999999999999998
    vertex 6.499999999999999 3.0 1.9999999999999998
  endloop
endfacet
facet normal -0.0 -0.0 1.0
  outer loop
    vertex 7.999999999999999 7.8999999999999995 1.9999999999999998
    vertex 6.499999999999999 3.0 1.9999999999999998
    vertex 7.999999999999999 -1.8999999999999997 1.9999999999999998
  endloop
endfacet
facet normal 0.0 0.0 -1.0
  outer loop
    vertex -1.9999999999999998 6.9 0.9999999999999999
    vertex -0.38074039201173937 3.9058666578588213 0.9999999999999999
    vertex -0.4999999999999998 2.9999999999999996 0.9999999999999999
  endloop
endfacet
facet normal 0.0 0.0 -1.0
  outer loop
    vertex -0.38074039201173937 3.9058666578588213 0.9999999999999999
    vertex -1.9999999999999998 6.9 0.9999999999999999
    vertex -0.031088913245536597 4.749999999999997 0.9999999999999999
  endloop
endfacet
facet normal 0.0 0.0 -1.0
  outer loop
    vertex -0.031088913245536597 4.749999999999997 0.9999999999999999
    vertex -1.9999999999999998 6.9 0.9999999999999999
    vertex 0.5251262658470833 5.474873734152916 0.9999999999999999
  endloop
endfacet
facet normal 0.0 0.0 -1.0
  outer loop
    vertex 0.5251262658470833 5.474873734152916 0.9999999999999999
    vertex -1.9999999999999998 6.9 0.9999999999999999
    vertex 1.2499999999999987 6.031088913245534 0.9999999999999999
  endloop
endfacet
facet normal 0.0 0.0 -1.0
  outer loop
    vertex 1.2499999999999987 6.031088913245534 0.9999999999999999
    vertex -1.9999999999999998 6.9 0.9999999999999999
    vertex 2.0941333421411747 6.380740392011737 0.9999999999999999
  endloop
endfacet
facet normal 0.0 0.0 -1.0
  outer loop
    vertex 2.0941333421411747 6.380740392011737 0.9999999999999999
    vertex -1.9999999999999998 6.9 0.9999999999999999
    vertex 3.0 6.499999999999999 0.9999999999999999
  endloop
endfacet
facet normal 0.0 0.0 -1.0
  outer loop
    vertex 3.0 6.499999999999999 0.9999999999999999
    vertex -1.9999999999999998 6.9 0.9999999999999999
    vertex 7.999999999999999 6.899999999999993 0.9999999999999999
  endloop
endfacet
facet normal 0.0 0.0 -1.0
  outer loop
    vertex 3.0 6.499999999999999 0.9999999999999999
    vertex 7.999999999999999 6.899999999999993 0.9999999999999999
    vertex 3.905866657858822 6.380740392011738 0.9999999999999999
  endloop
endfacet
facet normal 0.0 0.0 -1.0
  outer loop
    vertex 3.905866657858822 6.380740392011738 0.9999999999999999
    vertex 7.999999999999999 6.899999999999993 0.9999999999999999
    vertex 4.749999999999999 6.031088913245535 0.9999999999999999
  endloop
endfacet
facet normal 0.0 0.0 -1.0
  outer loop
    vertex 4.749999999999999 6.031088913245535 0.9999999999999999
    vertex 7.999999999999999 6.899999999999993 0.9999999999999999
    vertex 5.474873734152916 5.474873734152916 0.9999999999999999
  endloop
endfacet
facet normal 0.0 0.0 -1.0
  outer loop
    vertex 5.474873734152916 5.474873734152916 0.9999999999999999
    vertex 7.999999999999999 6.899999999999993 0.9999999999999999
    vertex 6.031088913245535 4.75 0.9999999999999999
  endloop
endfacet
facet normal 0.0 0.0 -1.0
  outer loop
    vertex 6.031088913245535 4.75 0.9999999999999999
    vertex 7.999999999999999 6.899999999999993 0.9999999999999999
    vertex 6.380740392011738 3.9058666578588226 0.9999999999999999
  endloop
endfacet
facet normal 0.0 0.0 -1.0
  outer loop
    vertex 6.380740392011738 3.9058666578588226 0.9999999999999999
    vertex 7.999999999999999 6.899999999999993 0.9999999999999999
    vertex 6.499999999999999 3.0 0.9999999999999999
  endloop
endfacet
facet normal 0.0 0.0 -1.0
  outer loop
    vertex -2.0000000000000004 -0.9000000000000002 0.9999999999999999
    vertex 2.9999999999999996 -0.49999999999999944 0.9999999999999999
    vertex 7.999999999999999 -0.8999999999999999 0.9999999999999999
  endloop
endfacet
facet normal 0.0 0.0 -1.0
  outer loop
    vertex 2.9999999999999996 -0.49999999999999944 0.9999999999999999
    vertex -2.0000000000000004 -0.9000000000000002 0.9999999999999999
    vertex 2.0941333421411783 -0.380740392011739 0.9999999999999999
  endloop
endfacet
facet normal 0.0 0.0 -1.0
  outer loop
    vertex 2.0941333421411783 -0.380740392011739 0.9999999999999999
    vertex -2.0000000000000004 -0.9000000000000002 0.9999999999999999
    vertex 1.2500000000000002 -0.031088913245535543 0.9999999999999999
  endloop
endfacet
facet normal 0.0 0.0 -1.0
  outer loop
    vertex 1.2500000000000002 -0.031088913245535543 0.9999999999999999
    vertex -2.0000000000000004 -0.9000000000000002 0.9999999999999999
    vertex 0.5251262658470847 0.5251262658470829 0.9999999999999999
  endloop
endfacet
facet normal 0.0 0.0 -1.0
  outer loop
    vertex 0.5251262658470847 0.5251262658470829 0.9999999999999999
    vertex -2.0000000000000004 -0.9000000000000002 0.9999999999999999
    vertex -0.031088913245534484 1.2499999999999991 0.9999999999999999
  endloop
endfacet
facet normal 0.0 0.0 -1.0
  outer loop
    vertex -0.031088913245534484 1.2499999999999991 0.9999999999999999
    vertex -2.0000000000000004 -0.9000000000000002 0.9999999999999999
    vertex -0.3807403920117379 2.094133342141175 0.9999999999999999
  endloop
endfacet
facet normal 0.0 0.0 -1.0
  outer loop
    vertex -0.3807403920117379 2.094133342141175 0.9999999999999999
    vertex -2.0000000000000004 -0.9000000000000002 0.9999999999999999
    vertex -1.9999999999999998 6.9 0.9999999999999999
  endloop
endfacet
facet normal 0.0 0.0 -1.0
  outer loop
    vertex -0.3807403920117379 2.094133342141175 0.9999999999999999
    vertex -1.9999999999999998 6.9 0.9999999999999999
    vertex -0.4999999999999998 2.9999999999999996 0.9999999999999999
  endloop
endfacet
facet normal 0.0 0.0 -1.0
  outer loop
    vertex 7.999999999999999 -0.8999999999999999 0.9999999999999999
    vertex 2.9999999999999996 -0.49999999999999944 0.9999999999999999
    vertex 3.9058666578588226 -0.3807403920117383 0.9999999999999999
  endloop
endfacet
facet normal 0.0 0.0 -1.0
  outer loop
    vertex 7.999999999999999 -0.8999999999999999 0.9999999999999999
    vertex 3.9058666578588226 -0.3807403920117383 0.9999999999999999
    vertex 4.75 -0.031088913245534484 0.9999999999999999
  endloop
endfacet
facet normal 0.0 0.0 -1.0
  outer loop
    vertex 7.999999999999999 -0.8999999999999999 0.9999999999999999
    vertex 4.75 -0.031088913245534484 0.9999999999999999
    vertex 5.474873734152915 0.525126265847084 0.9999999999999999
  endloop
endfacet
facet normal 0.0 0.0 -1.0
  outer loop
    vertex 7.999999999999999 -0.8999999999999999 0.9999999999999999
    vertex 5.474873734152915 0.525126265847084 0.9999999999999999
    vertex 6.031088913245535 1.2500000000000004 0.9999999999999999
  endloop
endfacet
facet normal 0.0 0.0 -1.0
  outer loop
    vertex 7.999999999999999 -0.8999999999999999 0.9999999999999999
    vertex 6.031088913245535 1.2500000000000004 0.9999999999999999
    vertex 6.380740392011738 2.0941333421411774 0.9999999999999999
  endloop
endfacet
facet normal 0.0 0.0 -1.0
  outer loop
    vertex 7.999999999999999 -0.8999999999999999 0.9999999999999999
    vertex 6.380740392011738 2.0941333421411774 0.9999999999999999
    vertex 6.499999999999999 3.0 0.9999999999999999
  endloop
endfacet
facet normal 0.0 0.0 -1.0
  outer loop
    vertex 7.999999999999999 -0.8999999999999999 0.9999999999999999
    vertex 6.499999999999999 3.0 0.9999999999999999
    vertex 7.999999999999999 6.899999999999993 0.9999999999999999
  endloop
endfacet
facet normal -0.0 -0.0 1.0
  outer loop
    vertex 7.999999999999999 -0.8999999999999999 -4.999999999999999
    vertex -1.9999999999999998 6.9 -4.999999999999999
    vertex -2.0000000000000004 -0.9000000000000002 -4.999999999999999
  endloop
endfacet
facet normal -0.0 -0.0 1.0
  outer loop
    vertex -1.9999999999999998 6.9 -4.999999999999999
    vertex 7.999999999999999 -0.8999999999999999 -4.999999999999999
    vertex 7.999999999999999 6.9 -4.999999999999999
  endloop
endfacet
facet normal 0.9238795325112867 0.38268343236508995 0.0
  outer loop
    vertex -0.3807403920117379 2.094133342141175 0.9999999999999999
    vertex -0.031088913245534484 1.2499999999999991 1.9999999999999998
    vertex -0.031088913245534484 1.2499999999999991 0.9999999999999999
  endloop
endfacet
facet normal 0.9238795325112867 0.38268343236508995 0.0
  outer loop
    vertex -0.031088913245534484 1.2499999999999991 1.9999999999999998
    vertex -0.3807403920117379 2.094133342141175 0.9999999999999999
    vertex -0.3807403920117379 2.094133342141175 1.9999999999999998
  endloop
endfacet
facet normal 0.9914448613738105 0.13052619222005232 0.0
  outer loop
    vertex -0.4999999999999998 2.9999999999999996 0.9999999999999999
    vertex -0.3807403920117379 2.094133342141175 1.9999999999999998
    vertex -0.3807403920117379 2.094133342141175 0.9999999999999999
  endloop
endfacet
facet normal 0.9914448613738105 0.13052619222005232 0.0
  outer loop
    vertex -0.3807403920117379 2.094133342141175 1.9999999999999998
    vertex -0.4999999999999998 2.9999999999999996 0.9999999999999999
    vertex -0.4999999999999998 2.9999999999999996 1.9999999999999998
  endloop
endfacet
facet normal 0.9914448613738105 -0.13052619222005107 -0.0
  outer loop
    vertex -0.38074039201173937 3.9058666578588213 0.9999999999999999
    vertex -0.4999999999999998 2.9999999999999996 1.9999999999999998
    vertex -0.4999999999999998 2.9999999999999996 0.9999999999999999
  endloop
endfacet
facet normal 0.9914448613738105 -0.13052619222005107 -0.0
  outer loop
    vertex -0.4999999999999998 2.9999999999999996 1.9999999999999998
    vertex -0.38074039201173937 3.9058666578588213 0.9999999999999999
    vertex -0.38074039201173937 3.9058666578588213 1.9999999999999998
  endloop
endfacet
facet normal 0.9238795325112868 -0.3826834323650895 -0.0
  outer loop
    vertex -0.031088913245536597 4.749999999999997 0.9999999999999999
    vertex -0.38074039201173937 3.9058666578588213 1.9999999999999998
    vertex -0.38074039201173937 3.9058666578588213 0.9999999999999999
  endloop
endfacet
facet normal 0.9238795325112868 -0.3826834323650895 -0.0
  outer loop
    vertex -0.38074039201173937 3.9058666578588213 1.9999999999999998
    vertex -0.031088913245536597 4.749999999999997 0.9999999999999999
    vertex -0.031088913245536597 4.749999999999997 1.9999999999999998
  endloop
endfacet
facet normal 0.7933533402912357 -0.6087614290087201 -0.0
  outer loop
    vertex 0.5251262658470833 5.474873734152916 0.9999999999999999
    vertex -0.031088913245536597 4.749999999999997 1.9999999999999998
    vertex -0.031088913245536597 4.749999999999997 0.9999999999999999
  endloop
endfacet
facet normal 0.7933533402912357 -0.6087614290087201 -0.0
  outer loop
    vertex -0.031088913245536597 4.749999999999997 1.9999999999999998
    vertex 0.5251262658470833 5.474873734152916 0.9999999999999999
    vertex 0.5251262658470833 5.474873734152916 1.9999999999999998
  endloop
endfacet
facet normal 0.6087614290087205 -0.7933533402912353 -0.0
  outer loop
    vertex 1.2499999999999987 6.031088913245534 1.9999999999999998
    vertex 0.5251262658470833 5.474873734152916 0.9999999999999999
    vertex 1.2499999999999987 6.031088913245534 0.9999999999999999
  endloop
endfacet
facet normal 0.6087614290087205 -0.7933533402912353 -0.0
  outer loop
    vertex 0.5251262658470833 5.474873734152916 0.9999999999999999
    vertex 1.2499999999999987 6.031088913245534 1.9999999999999998
    vertex 0.5251262658470833 5.474873734152916 1.9999999999999998
  endloop
endfacet
facet normal 0.3826834323650897 -0.9238795325112867 -0.0
  outer loop
    vertex 2.0941333421411747 6.380740392011737 1.9999999999999998
    vertex 1.2499999999999987 6.031088913245534 0.9999999999999999
    vertex 2.0941333421411747 6.380740392011737 0.9999999999999999
  endloop
endfacet
facet normal 0.3826834323650897 -0.9238795325112867 -0.0
  outer loop
    vertex 1.2499999999999987 6.031088913245534 0.9999999999999999
    vertex 2.0941333421411747 6.380740392011737 1.9999999999999998
    vertex 1.2499999999999987 6.031088913245534 1.9999999999999998
  endloop
endfacet
facet normal 0.1305261922200529 -0.9914448613738103 -0.0
  outer loop
    vertex 3.0 6.499999999999999 1.9999999999999998
    vertex 2.0941333421411747 6.380740392011737 0.9999999999999999
    vertex 3.0 6.499999999999999 0.9999999999999999
  endloop
endfacet
facet normal 0.1305261922200529 -0.9914448613738103 -0.0
  outer loop
    vertex 2.0941333421411747 6.380740392011737 0.9999999999999999
    vertex 3.0 6.499999999999999 1.9999999999999998
    vertex 2.0941333421411747 6.380740392011737 1.9999999999999998
  endloop
endfacet
facet normal -0.1305261922200518 -0.9914448613738105 -0.0
  outer loop
    vertex 3.905866657858822 6.380740392011738 1.9999999999999998
    vertex 3.0 6.499999999999999 0.9999999999999999
    vertex 3.905866657858822 6.380740392011738 0.9999999999999999
  endloop
endfacet
facet normal -0.1305261922200518 -0.9914448613738105 -0.0
  outer loop
    vertex 3.0 6.499999999999999 0.9999999999999999
    vertex 3.905866657858822 6.380740392011738 1.9999999999999998
    vertex 3.0 6.499999999999999 1.9999999999999998
  endloop
endfacet
facet normal -0.38268343236509006 -0.9238795325112868 -0.0
  outer loop
    vertex 4.749999999999999 6.031088913245535 1.9999999999999998
    vertex 3.905866657858822 6.380740392011738 0.9999999999999999
    vertex 4.749999999999999 6.031088913245535 0.9999999999999999
  endloop
endfacet
facet normal -0.38268343236509006 -0.9238795325112868 -0.0
  outer loop
    vertex 3.905866657858822 6.380740392011738 0.9999999999999999
    vertex 4.749999999999999 6.031088913245535 1.9999999999999998
    vertex 3.905866657858822 6.380740392011738 1.9999999999999998
  endloop
endfacet
facet normal -0.6087614290087204 -0.7933533402912353 -0.0
  outer loop
    vertex 5.474873734152916 5.474873734152916 1.9999999999999998
    vertex 4.749999999999999 6.031088913245535 0.9999999999999999
    vertex 5.474873734152916 5.474873734152916 0.9999999999999999
  endloop
endfacet
facet normal -0.6087614290087204 -0.7933533402912353 -0.0
  outer loop
    vertex 4.749999999999999 6.031088913245535 0.9999999999999999
    vertex 5.474873734152916 5.474873734152916 1.9999999999999998
    vertex 4.749999999999999 6.031088913245535 1.9999999999999998
  endloop
endfacet
facet normal -0.793353340291235 -0.6087614290087208 -0.0
  outer loop
    vertex 5.474873734152916 5.474873734152916 1.9999999999999998
    vertex 6.031088913245535 4.75 0.9999999999999999
    vertex 6.031088913245535 4.75 1.9999999999999998
  endloop
endfacet
facet normal -0.793353340291235 -0.6087614290087208 -0.0
  outer loop
    vertex 6.031088913245535 4.75 0.9999999999999999
    vertex 5.474873734152916 5.474873734152916 1.9999999999999998
    vertex 5.474873734152916 5.474873734152916 0.9999999999999999
  endloop
endfacet
facet normal -0.9238795325112868 -0.38268343236509006 -0.0
  outer loop
    vertex 6.031088913245535 4.75 1.9999999999999998
    vertex 6.380740392011738 3.9058666578588226 0.9999999999999999
    vertex 6.380740392011738 3.9058666578588226 1.9999999999999998
  endloop
endfacet
facet normal -0.9238795325112868 -0.38268343236509006 -0.0
  outer loop
    vertex 6.380740392011738 3.9058666578588226 0.9999999999999999
    vertex 6.031088913245535 4.75 1.9999999999999998
    vertex 6.031088913245535 4.75 0.9999999999999999
  endloop
endfacet
facet normal -0.9914448613738105 -0.1305261922200517 -0.0
  outer loop
    vertex 6.380740392011738 3.9058666578588226 1.9999999999999998
    vertex 6.499999999999999 3.0 0.9999999999999999
    vertex 6.499999999999999 3.0 1.9999999999999998
  endloop
endfacet
facet normal -0.9914448613738105 -0.1305261922200517 -0.0
  outer loop
    vertex 6.499999999999999 3.0 0.9999999999999999
    vertex 6.380740392011738 3.9058666578588226 1.9999999999999998
    vertex 6.380740392011738 3.9058666578588226 0.9999999999999999
  endloop
endfacet
facet normal -0.9914448613738105 0.1305261922200518 -0.0
  outer loop
    vertex 6.499999999999999 3.0 1.9999999999999998
    vertex 6.380740392011738 2.0941333421411774 0.9999999999999999
    vertex 6.380740392011738 2.0941333421411774 1.9999999999999998
  endloop
endfacet
facet normal -0.9914448613738105 0.1305261922200518 -0.0
  outer loop
    vertex 6.380740392011738 2.0941333421411774 0.9999999999999999
    vertex 6.499999999999999 3.0 1.9999999999999998
    vertex 6.499999999999999 3.0 0.9999999999999999
  endloop
endfacet
facet normal -0.9238795325112868 0.38268343236509006 -0.0
  outer loop
    vertex 6.380740392011738 2.0941333421411774 1.9999999999999998
    vertex 6.031088913245535 1.2500000000000004 0.9999999999999999
    vertex 6.031088913245535 1.2500000000000004 1.9999999999999998
  endloop
endfacet
facet normal -0.9238795325112868 0.38268343236509006 -0.0
  outer loop
    vertex 6.031088913245535 1.2500000000000004 0.9999999999999999
    vertex 6.380740392011738 2.0941333421411774 1.9999999999999998
    vertex 6.380740392011738 2.0941333421411774 0.9999999999999999
  endloop
endfacet
facet normal -0.793353340291235 0.608761429008721 -0.0
  outer loop
    vertex 6.031088913245535 1.2500000000000004 1.9999999999999998
    vertex 5.474873734152915 0.525126265847084 0.9999999999999999
    vertex 5.474873734152915 0.525126265847084 1.9999999999999998
  endloop
endfacet
facet normal -0.793353340291235 0.608761429008721 -0.0
  outer loop
    vertex 5.474873734152915 0.525126265847084 0.9999999999999999
    vertex 6.031088913245535 1.2500000000000004 1.9999999999999998
    vertex 6.031088913245535 1.2500000000000004 0.9999999999999999
  endloop
endfacet
facet normal -0.608761429008721 0.793353340291235 -0.0
  outer loop
    vertex 4.75 -0.031088913245534484 1.9999999999999998
    vertex 5.474873734152915 0.525126265847084 0.9999999999999999
    vertex 4.75 -0.031088913245534484 0.9999999999999999
  endloop
endfacet
facet normal -0.608761429008721 0.793353340291235 -0.0
  outer loop
    vertex 5.474873734152915 0.525126265847084 0.9999999999999999
    vertex 4.75 -0.031088913245534484 1.9999999999999998
    vertex 5.474873734152915 0.525126265847084 1.9999999999999998
  endloop
endfacet
facet normal -0.38268343236509006 0.9238795325112868 -0.0
  outer loop
    vertex 3.9058666578588226 -0.3807403920117383 1.9999999999999998
    vertex 4.75 -0.031088913245534484 0.9999999999999999
    vertex 3.9058666578588226 -0.3807403920117383 0.9999999999999999
  endloop
endfacet
facet normal -0.38268343236509006 0.9238795325112868 -0.0
  outer loop
    vertex 4.75 -0.031088913245534484 0.9999999999999999
    vertex 3.9058666578588226 -0.3807403920117383 1.9999999999999998
    vertex 4.75 -0.031088913245534484 1.9999999999999998
  endloop
endfacet
facet normal -0.13052619222005166 0.9914448613738105 -0.0
  outer loop
    vertex 2.9999999999999996 -0.49999999999999944 1.9999999999999998
    vertex 3.9058666578588226 -0.3807403920117383 0.9999999999999999
    vertex 2.9999999999999996 -0.49999999999999944 0.9999999999999999
  endloop
endfacet
facet normal -0.13052619222005166 0.9914448613738105 -0.0
  outer loop
    vertex 3.9058666578588226 -0.3807403920117383 0.9999999999999999
    vertex 2.9999999999999996 -0.49999999999999944 1.9999999999999998
    vertex 3.9058666578588226 -0.3807403920117383 1.9999999999999998
  endloop
endfacet
facet normal 0.13052619222005118 0.9914448613738105 0.0
  outer loop
    vertex 2.0941333421411783 -0.380740392011739 1.9999999999999998
    vertex 2.9999999999999996 -0.49999999999999944 0.9999999999999999
    vertex 2.0941333421411783 -0.380740392011739 0.9999999999999999
  endloop
endfacet
facet normal 0.13052619222005118 0.9914448613738105 0.0
  outer loop
    vertex 2.9999999999999996 -0.49999999999999944 0.9999999999999999
    vertex 2.0941333421411783 -0.380740392011739 1.9999999999999998
    vertex 2.9999999999999996 -0.49999999999999944 1.9999999999999998
  endloop
endfacet
facet normal -2.3499720687899137e-16 -1.0 6.122295652900027e-16
  outer loop
    vertex 7.999999999999999 -1.8999999999999997 1.9999999999999998
    vertex -2.0000000000000036 -1.900000000000004 -5.999999999999962
    vertex 7.999999999999999 -1.900000000000011 -5.999999999999962
  endloop
endfacet
facet normal -2.3499720687899137e-16 -1.0 6.122295652900027e-16
  outer loop
    vertex -2.0000000000000036 -1.900000000000004 -5.999999999999962
    vertex 7.999999999999999 -1.8999999999999997 1.9999999999999998
    vertex -1.9999999999999998 -1.8999999999999997 1.9999999999999998
  endloop
endfacet
facet normal 0.3826834323650892 0.923879532511287 0.0
  outer loop
    vertex 1.2500000000000002 -0.031088913245535543 1.9999999999999998
    vertex 2.0941333421411783 -0.380740392011739 0.9999999999999999
    vertex 1.2500000000000002 -0.031088913245535543 0.9999999999999999
  endloop
endfacet
facet normal 0.3826834323650892 0.923879532511287 0.0
  outer loop
    vertex 2.0941333421411783 -0.380740392011739 0.9999999999999999
    vertex 1.2500000000000002 -0.031088913245535543 1.9999999999999998
    vertex 2.0941333421411783 -0.380740392011739 1.9999999999999998
  endloop
endfacet
facet normal 0.6087614290087208 0.793353340291235 0.0
  outer loop
    vertex 0.5251262658470847 0.5251262658470829 1.9999999999999998
    vertex 1.2500000000000002 -0.031088913245535543 0.9999999999999999
    vertex 0.5251262658470847 0.5251262658470829 0.9999999999999999
  endloop
endfacet
facet normal 0.6087614290087208 0.793353340291235 0.0
  outer loop
    vertex 1.2500000000000002 -0.031088913245535543 0.9999999999999999
    vertex 0.5251262658470847 0.5251262658470829 1.9999999999999998
    vertex 1.2500000000000002 -0.031088913245535543 1.9999999999999998
  endloop
endfacet
facet normal 0.793353340291235 0.608761429008721 0.0
  outer loop
    vertex -0.031088913245534484 1.2499999999999991 0.9999999999999999
    vertex 0.5251262658470847 0.5251262658470829 1.9999999999999998
    vertex 0.5251262658470847 0.5251262658470829 0.9999999999999999
  endloop
endfacet
facet normal 0.793353340291235 0.608761429008721 0.0
  outer loop
    vertex 0.5251262658470847 0.5251262658470829 1.9999999999999998
    vertex -0.031088913245534484 1.2499999999999991 0.9999999999999999
    vertex -0.031088913245534484 1.2499999999999991 1.9999999999999998
  endloop
endfacet
endsolid button
