solid button
facet normal -0.1305261922200522 0.9914448613738104 0.0
  outer loop
    vertex 2.2235428646924356 5.897777478867204 3.9999999999999996
    vertex 3.0 6.0 0.9999999999999999
    vertex 2.2235428646924356 5.897777478867204 0.9999999999999999
  endloop
endfacet
facet normal -0.1305261922200522 0.9914448613738104 0.0
  outer loop
    vertex 3.0 6.0 0.9999999999999999
    vertex 2.2235428646924356 5.897777478867204 3.9999999999999996
    vertex 3.0 6.0 3.9999999999999996
  endloop
endfacet
facet normal -0.9238795325112865 -0.3826834323650904 -0.0
  outer loop
    vertex 0.1022225211327956 2.2235428646924356 3.9999999999999996
    vertex 0.40192378864668477 1.499999999999999 0.9999999999999999
    vertex 0.40192378864668477 1.499999999999999 3.9999999999999996
  endloop
endfacet
facet normal -0.9238795325112865 -0.3826834323650904 -0.0
  outer loop
    vertex 0.40192378864668477 1.499999999999999 0.9999999999999999
    vertex 0.1022225211327956 2.2235428646924356 3.9999999999999996
    vertex 0.1022225211327956 2.2235428646924356 0.9999999999999999
  endloop
endfacet
facet normal -0.6087614290087204 0.7933533402912354 0.0
  outer loop
    vertex 0.8786796564403568 5.121320343559642 3.9999999999999996
    vertex 1.4999999999999987 5.598076211353315 0.9999999999999999
    vertex 0.8786796564403568 5.121320343559642 0.9999999999999999
  endloop
endfacet
facet normal -0.6087614290087204 0.7933533402912354 0.0
  outer loop
    vertex 1.4999999999999987 5.598076211353315 0.9999999999999999
    vertex 0.8786796564403568 5.121320343559642 3.9999999999999996
    vertex 1.4999999999999987 5.598076211353315 3.9999999999999996
  endloop
endfacet
facet normal -0.9238795325112872 0.38268343236508906 0.0
  outer loop
    vertex 0.401923788646683 4.499999999999998 3.9999999999999996
    vertex 0.10222252113279491 3.776457135307561 0.9999999999999999
    vertex 0.10222252113279491 3.776457135307561 3.9999999999999996
  endloop
endfacet
facet normal -0.9238795325112872 0.38268343236508906 0.0
  outer loop
    vertex 0.10222252113279491 3.776457135307561 0.9999999999999999
    vertex 0.401923788646683 4.499999999999998 3.9999999999999996
    vertex 0.401923788646683 4.499999999999998 0.9999999999999999
  endloop
endfacet
facet normal -0.38268343236509084 0.9238795325112863 0.0
  outer loop
    vertex 1.4999999999999987 5.598076211353315 3.9999999999999996
    vertex 2.2235428646924356 5.897777478867204 0.9999999999999999
    vertex 1.4999999999999987 5.598076211353315 0.9999999999999999
  endloop
endfacet
facet normal -0.38268343236509084 0.9238795325112863 0.0
  outer loop
    vertex 2.2235428646924356 5.897777478867204 0.9999999999999999
    vertex 1.4999999999999987 5.598076211353315 3.9999999999999996
    vertex 2.2235428646924356 5.897777478867204 3.9999999999999996
  endloop
endfacet
facet normal -0.7933533402912356 0.60876142900872 0.0
  outer loop
    vertex 0.8786796564403568 5.121320343559642 3.9999999999999996
    vertex 0.401923788646683 4.499999999999998 0.9999999999999999
    vertex 0.401923788646683 4.499999999999998 3.9999999999999996
  endloop
endfacet
facet normal -0.7933533402912356 0.60876142900872 0.0
  outer loop
    vertex 0.401923788646683 4.499999999999998 0.9999999999999999
    vertex 0.8786796564403568 5.121320343559642 3.9999999999999996
    vertex 0.8786796564403568 5.121320343559642 0.9999999999999999
  endloop
endfacet
facet normal -0.9914448613738105 -0.13052619222005196 -0.0
  outer loop
    vertex 0.0 2.9999999999999996 3.9999999999999996
    vertex 0.1022225211327956 2.2235428646924356 0.9999999999999999
    vertex 0.1022225211327956 2.2235428646924356 3.9999999999999996
  endloop
endfacet
facet normal -0.9914448613738105 -0.13052619222005196 -0.0
  outer loop
    vertex 0.1022225211327956 2.2235428646924356 0.9999999999999999
    vertex 0.0 2.9999999999999996 3.9999999999999996
    vertex 0.0 2.9999999999999996 0.9999999999999999
  endloop
endfacet
facet normal -0.9914448613738104 0.13052619222005146 0.0
  outer loop
    vertex 0.10222252113279491 3.776457135307561 3.9999999999999996
    vertex 0.0 2.9999999999999996 0.9999999999999999
    vertex 0.0 2.9999999999999996 3.9999999999999996
  endloop
endfacet
facet normal -0.9914448613738104 0.13052619222005146 0.0
  outer loop
    vertex 0.0 2.9999999999999996 0.9999999999999999
    vertex 0.10222252113279491 3.776457135307561 3.9999999999999996
    vertex 0.10222252113279491 3.776457135307561 0.9999999999999999
  endloop
endfacet
facet normal 0.0 0.0 1.0
  outer loop
    vertex 6.0 0.0 0.9999999999999999
    vertex 3.7764571353075636 0.1022225211327956 0.9999999999999999
    vertex 3.0000000000000004 3.524958103184872e-16 0.9999999999999999
  endloop
endfacet
facet normal 0.0 0.0 1.0
  outer loop
    vertex 3.7764571353075636 0.1022225211327956 0.9999999999999999
    vertex 6.0 0.0 0.9999999999999999
    vertex 4.500000000000002 0.40192378864668477 0.9999999999999999
  endloop
endfacet
facet normal 0.0 0.0 1.0
  outer loop
    vertex 4.500000000000002 0.40192378864668477 0.9999999999999999
    vertex 6.0 0.0 0.9999999999999999
    vertex 5.121320343559643 0.878679656440358 0.9999999999999999
  endloop
endfacet
facet normal 0.0 0.0 1.0
  outer loop
    vertex 5.121320343559643 0.878679656440358 0.9999999999999999
    vertex 6.0 0.0 0.9999999999999999
    vertex 5.598076211353316 1.5000000000000009 0.9999999999999999
  endloop
endfacet
facet normal 0.0 0.0 1.0
  outer loop
    vertex 5.598076211353316 1.5000000000000009 0.9999999999999999
    vertex 6.0 0.0 0.9999999999999999
    vertex 5.897777478867205 2.2235428646924382 0.9999999999999999
  endloop
endfacet
facet normal 0.0 0.0 1.0
  outer loop
    vertex 5.897777478867205 2.2235428646924382 0.9999999999999999
    vertex 6.0 0.0 0.9999999999999999
    vertex 6.0 3.0000000000000004 0.9999999999999999
  endloop
endfacet
facet normal 0.0 0.0 1.0
  outer loop
    vertex 0.0 0.0 0.9999999999999999
    vertex 0.1022225211327956 2.2235428646924356 0.9999999999999999
    vertex 0.0 2.9999999999999996 0.9999999999999999
  endloop
endfacet
facet normal 0.0 0.0 1.0
  outer loop
    vertex 0.1022225211327956 2.2235428646924356 0.9999999999999999
    vertex 0.0 0.0 0.9999999999999999
    vertex 0.40192378864668477 1.499999999999999 0.9999999999999999
  endloop
endfacet
facet normal 0.0 0.0 1.0
  outer loop
    vertex 0.40192378864668477 1.499999999999999 0.9999999999999999
    vertex 0.0 0.0 0.9999999999999999
    vertex 0.8786796564403586 0.8786796564403565 0.9999999999999999
  endloop
endfacet
facet normal 0.0 0.0 1.0
  outer loop
    vertex 0.8786796564403586 0.8786796564403565 0.9999999999999999
    vertex 0.0 0.0 0.9999999999999999
    vertex 1.5000000000000007 0.40192378864668404 0.9999999999999999
  endloop
endfacet
facet normal 0.0 0.0 1.0
  outer loop
    vertex 1.5000000000000007 0.40192378864668404 0.9999999999999999
    vertex 0.0 0.0 0.9999999999999999
    vertex 2.2235428646924387 0.10222252113279526 0.9999999999999999
  endloop
endfacet
facet normal 0.0 0.0 1.0
  outer loop
    vertex 2.2235428646924387 0.10222252113279526 0.9999999999999999
    vertex 0.0 0.0 0.9999999999999999
    vertex 3.0000000000000004 3.524958103184872e-16 0.9999999999999999
  endloop
endfacet
facet normal 0.0 0.0 1.0
  outer loop
    vertex 0.10222252113279491 3.776457135307561 0.9999999999999999
    vertex 0.0 6.0 0.9999999999999999
    vertex 0.0 2.9999999999999996 0.9999999999999999
  endloop
endfacet
facet normal 0.0 0.0 1.0
  outer loop
    vertex 0.0 6.0 0.9999999999999999
    vertex 0.10222252113279491 3.776457135307561 0.9999999999999999
    vertex 0.401923788646683 4.499999999999998 0.9999999999999999
  endloop
endfacet
facet normal 0.0 0.0 1.0
  outer loop
    vertex 0.0 6.0 0.9999999999999999
    vertex 0.401923788646683 4.499999999999998 0.9999999999999999
    vertex 0.8786796564403568 5.121320343559642 0.9999999999999999
  endloop
endfacet
facet normal 0.0 0.0 1.0
  outer loop
    vertex 0.0 6.0 0.9999999999999999
    vertex 0.8786796564403568 5.121320343559642 0.9999999999999999
    vertex 1.4999999999999987 5.598076211353315 0.9999999999999999
  endloop
endfacet
facet normal 0.0 0.0 1.0
  outer loop
    vertex 0.0 6.0 0.9999999999999999
    vertex 1.4999999999999987 5.598076211353315 0.9999999999999999
    vertex 2.2235428646924356 5.897777478867204 0.9999999999999999
  endloop
endfacet
facet normal 0.0 0.0 1.0
  outer loop
    vertex 0.0 6.0 0.9999999999999999
    vertex 2.2235428646924356 5.897777478867204 0.9999999999999999
    vertex 3.0 6.0 0.9999999999999999
  endloop
endfacet
facet normal 0.9238795325112867 0.3826834323650898 0.0
  outer loop
    vertex 5.598076211353316 4.5 0.9999999999999999
    vertex 5.897777478867205 3.7764571353075627 3.9999999999999996
    vertex 5.897777478867205 3.7764571353075627 0.9999999999999999
  endloop
endfacet
facet normal 0.9238795325112867 0.3826834323650898 0.0
  outer loop
    vertex 5.897777478867205 3.7764571353075627 3.9999999999999996
    vertex 5.598076211353316 4.5 0.9999999999999999
    vertex 5.598076211353316 4.5 3.9999999999999996
  endloop
endfacet
facet normal 0.1305261922200518 0.9914448613738104 0.0
  outer loop
    vertex 3.0 6.0 3.9999999999999996
    vertex 3.776457135307562 5.897777478867205 0.9999999999999999
    vertex 3.0 6.0 0.9999999999999999
  endloop
endfacet
facet normal 0.1305261922200518 0.9914448613738104 0.0
  outer loop
    vertex 3.776457135307562 5.897777478867205 0.9999999999999999
    vertex 3.0 6.0 3.9999999999999996
    vertex 3.776457135307562 5.897777478867205 3.9999999999999996
  endloop
endfacet
facet normal 0.9914448613738105 0.13052619222005174 0.0
  outer loop
    vertex 5.897777478867205 3.7764571353075627 0.9999999999999999
    vertex 6.0 3.0000000000000004 3.9999999999999996
    vertex 6.0 3.0000000000000004 0.9999999999999999
  endloop
endfacet
facet normal 0.9914448613738105 0.13052619222005174 0.0
  outer loop
    vertex 6.0 3.0000000000000004 3.9999999999999996
    vertex 5.897777478867205 3.7764571353075627 0.9999999999999999
    vertex 5.897777478867205 3.7764571353075627 3.9999999999999996
  endloop
endfacet
facet normal 0.38268343236508945 0.9238795325112868 0.0
  outer loop
    vertex 3.776457135307562 5.897777478867205 3.9999999999999996
    vertex 4.5 5.598076211353316 0.9999999999999999
    vertex 3.776457135307562 5.897777478867205 0.9999999999999999
  endloop
endfacet
facet normal 0.38268343236508945 0.9238795325112868 0.0
  outer loop
    vertex 4.5 5.598076211353316 0.9999999999999999
    vertex 3.776457135307562 5.897777478867205 3.9999999999999996
    vertex 4.5 5.598076211353316 3.9999999999999996
  endloop
endfacet
facet normal 0.6087614290087213 0.7933533402912346 0.0
  outer loop
    vertex 4.5 5.598076211353316 3.9999999999999996
    vertex 5.121320343559642 5.121320343559642 0.9999999999999999
    vertex 4.5 5.598076211353316 0.9999999999999999
  endloop
endfacet
facet normal 0.6087614290087213 0.7933533402912346 0.0
  outer loop
    vertex 5.121320343559642 5.121320343559642 0.9999999999999999
    vertex 4.5 5.598076211353316 3.9999999999999996
    vertex 5.121320343559642 5.121320343559642 3.9999999999999996
  endloop
endfacet
facet normal 0.9238795325112867 -0.38268343236508984 0.0
  outer loop
    vertex 5.897777478867205 2.2235428646924382 0.9999999999999999
    vertex 5.598076211353316 1.5000000000000009 3.9999999999999996
    vertex 5.598076211353316 1.5000000000000009 0.9999999999999999
  endloop
endfacet
facet normal 0.9238795325112867 -0.38268343236508984 0.0
  outer loop
    vertex 5.598076211353316 1.5000000000000009 3.9999999999999996
    vertex 5.897777478867205 2.2235428646924382 0.9999999999999999
    vertex 5.897777478867205 2.2235428646924382 3.9999999999999996
  endloop
endfacet
facet normal 0.7933533402912346 0.6087614290087213 0.0
  outer loop
    vertex 5.121320343559642 5.121320343559642 0.9999999999999999
    vertex 5.598076211353316 4.5 3.9999999999999996
    vertex 5.598076211353316 4.5 0.9999999999999999
  endloop
endfacet
facet normal 0.7933533402912346 0.6087614290087213 0.0
  outer loop
    vertex 5.598076211353316 4.5 3.9999999999999996
    vertex 5.121320343559642 5.121320343559642 0.9999999999999999
    vertex 5.121320343559642 5.121320343559642 3.9999999999999996
  endloop
endfacet
facet normal 0.9914448613738105 -0.13052619222005174 0.0
  outer loop
    vertex 6.0 3.0000000000000004 0.9999999999999999
    vertex 5.897777478867205 2.2235428646924382 3.9999999999999996
    vertex 5.897777478867205 2.2235428646924382 0.9999999999999999
  endloop
endfacet
facet normal 0.9914448613738105 -0.13052619222005174 0.0
  outer loop
    vertex 5.897777478867205 2.2235428646924382 3.9999999999999996
    vertex 6.0 3.0000000000000004 0.9999999999999999
    vertex 6.0 3.0000000000000004 3.9999999999999996
  endloop
endfacet
facet normal 0.3826834323650899 -0.9238795325112868 0.0
  outer loop
    vertex 4.500000000000002 0.40192378864668477 3.9999999999999996
    vertex 3.7764571353075636 0.1022225211327956 0.9999999999999999
    vertex 4.500000000000002 0.40192378864668477 0.9999999999999999
  endloop
endfacet
facet normal 0.3826834323650899 -0.9238795325112868 0.0
  outer loop
    vertex 3.7764571353075636 0.1022225211327956 0.9999999999999999
    vertex 4.500000000000002 0.40192378864668477 3.9999999999999996
    vertex 3.7764571353075636 0.1022225211327956 3.9999999999999996
  endloop
endfacet
facet normal -0.1305261922200514 -0.9914448613738104 -0.0
  outer loop
    vertex 3.0000000000000004 3.524958103184872e-16 3.9999999999999996
    vertex 2.2235428646924387 0.10222252113279526 0.9999999999999999
    vertex 3.0000000000000004 3.524958103184872e-16 0.9999999999999999
  endloop
endfacet
facet normal -0.1305261922200514 -0.9914448613738104 -0.0
  outer loop
    vertex 2.2235428646924387 0.10222252113279526 0.9999999999999999
    vertex 3.0000000000000004 3.524958103184872e-16 3.9999999999999996
    vertex 2.2235428646924387 0.10222252113279526 3.9999999999999996
  endloop
endfacet
facet normal 0.0 0.0 -1.0
  outer loop
    vertex 6.0 6.0 0.0
    vertex 0.0 0.0 0.0
    vertex 0.0 6.0 0.0
  endloop
endfacet
facet normal 0.0 0.0 -1.0
  outer loop
    vertex 0.0 0.0 0.0
    vertex 6.0 6.0 0.0
    vertex 6.0 0.0 0.0
  endloop
endfacet
facet normal -0.7933533402912347 -0.6087614290087212 -0.0
  outer loop
    vertex 0.40192378864668477 1.499999999999999 3.9999999999999996
    vertex 0.8786796564403586 0.8786796564403565 0.9999999999999999
    vertex 0.8786796564403586 0.8786796564403565 3.9999999999999996
  endloop
endfacet
facet normal -0.7933533402912347 -0.6087614290087212 -0.0
  outer loop
    vertex 0.8786796564403586 0.8786796564403565 0.9999999999999999
    vertex 0.40192378864668477 1.499999999999999 3.9999999999999996
    vertex 0.40192378864668477 1.499999999999999 0.9999999999999999
  endloop
endfacet
facet normal 0.7933533402912356 -0.6087614290087202 0.0
  outer loop
    vertex 5.598076211353316 1.5000000000000009 0.9999999999999999
    vertex 5.121320343559643 0.878679656440358 3.9999999999999996
    vertex 5.121320343559643 0.878679656440358 0.9999999999999999
  endloop
endfacet
facet normal 0.7933533402912356 -0.6087614290087202 0.0
  outer loop
    vertex 5.121320343559643 0.878679656440358 3.9999999999999996
    vertex 5.598076211353316 1.5000000000000009 0.9999999999999999
    vertex 5.598076211353316 1.5000000000000009 3.9999999999999996
  endloop
endfacet
facet normal 0.13052619222005163 -0.9914448613738105 0.0
  outer loop
    vertex 3.7764571353075636 0.1022225211327956 3.9999999999999996
    vertex 3.0000000000000004 3.524958103184872e-16 0.9999999999999999
    vertex 3.7764571353075636 0.1022225211327956 0.9999999999999999
  endloop
endfacet
facet normal 0.13052619222005163 -0.9914448613738105 0.0
  outer loop
    vertex 3.0000000000000004 3.524958103184872e-16 0.9999999999999999
    vertex 3.7764571353075636 0.1022225211327956 3.9999999999999996
    vertex 3.0000000000000004 3.524958103184872e-16 3.9999999999999996
  endloop
endfacet
facet normal 0.6087614290087212 -0.7933533402912347 0.0
  outer loop
    vertex 5.121320343559643 0.878679656440358 3.9999999999999996
    vertex 4.500000000000002 0.40192378864668477 0.9999999999999999
    vertex 5.121320343559643 0.878679656440358 0.9999999999999999
  endloop
endfacet
facet normal 0.6087614290087212 -0.7933533402912347 0.0
  outer loop
    vertex 4.500000000000002 0.40192378864668477 0.9999999999999999
    vertex 5.121320343559643 0.878679656440358 3.9999999999999996
    vertex 4.500000000000002 0.40192378864668477 3.9999999999999996
  endloop
endfacet
facet normal -0.38268343236508945 -0.9238795325112868 -0.0
  outer loop
    vertex 2.2235428646924387 0.10222252113279526 3.9999999999999996
    vertex 1.5000000000000007 0.40192378864668404 0.9999999999999999
    vertex 2.2235428646924387 0.10222252113279526 0.9999999999999999
  endloop
endfacet
facet normal -0.38268343236508945 -0.9238795325112868 -0.0
  outer loop
    vertex 1.5000000000000007 0.40192378864668404 0.9999999999999999
    vertex 2.2235428646924387 0.10222252113279526 3.9999999999999996
    vertex 1.5000000000000007 0.40192378864668404 3.9999999999999996
  endloop
endfacet
facet normal -0.6087614290087202 -0.7933533402912355 -0.0
  outer loop
    vertex 1.5000000000000007 0.40192378864668404 3.9999999999999996
    vertex 0.8786796564403586 0.8786796564403565 0.9999999999999999
    vertex 1.5000000000000007 0.40192378864668404 0.9999999999999999
  endloop
endfacet
facet normal -0.6087614290087202 -0.7933533402912355 -0.0
  outer loop
    vertex 0.8786796564403586 0.8786796564403565 0.9999999999999999
    vertex 1.5000000000000007 0.40192378864668404 3.9999999999999996
    vertex 0.8786796564403586 0.8786796564403565 3.9999999999999996
  endloop
endfacet
facet normal 0.0 0.0 1.0
  outer loop
    vertex 0.1022225211327956 2.2235428646924356 3.9999999999999996
    vertex 0.10222252113279491 3.776457135307561 3.9999999999999996
    vertex 0.0 2.9999999999999996 3.9999999999999996
  endloop
endfacet
facet normal 0.0 0.0 1.0
  outer loop
    vertex 0.10222252113279491 3.776457135307561 3.9999999999999996
    vertex 0.1022225211327956 2.2235428646924356 3.9999999999999996
    vertex 0.401923788646683 4.499999999999998 3.9999999999999996
  endloop
endfacet
facet normal 0.0 0.0 1.0
  outer loop
    vertex 0.401923788646683 4.499999999999998 3.9999999999999996
    vertex 0.1022225211327956 2.2235428646924356 3.9999999999999996
    vertex 0.40192378864668477 1.499999999999999 3.9999999999999996
  endloop
endfacet
facet normal 0.0 0.0 1.0
  outer loop
    vertex 0.401923788646683 4.499999999999998 3.9999999999999996
    vertex 0.40192378864668477 1.499999999999999 3.9999999999999996
    vertex 0.8786796564403568 5.121320343559642 3.9999999999999996
  endloop
endfacet
facet normal 0.0 0.0 1.0
  outer loop
    vertex 0.8786796564403568 5.121320343559642 3.9999999999999996
    vertex 0.40192378864668477 1.499999999999999 3.9999999999999996
    vertex 0.8786796564403586 0.8786796564403565 3.9999999999999996
  endloop
endfacet
facet normal 0.0 0.0 1.0
  outer loop
    vertex 0.8786796564403568 5.121320343559642 3.9999999999999996
    vertex 0.8786796564403586 0.8786796564403565 3.9999999999999996
    vertex 1.4999999999999987 5.598076211353315 3.9999999999999996
  endloop
endfacet
facet normal 0.0 0.0 1.0
  outer loop
    vertex 1.4999999999999987 5.598076211353315 3.9999999999999996
    vertex 0.8786796564403586 0.8786796564403565 3.9999999999999996
    vertex 1.5000000000000007 0.40192378864668404 3.9999999999999996
  endloop
endfacet
facet normal 0.0 0.0 1.0
  outer loop
    vertex 1.4999999999999987 5.598076211353315 3.9999999999999996
    vertex 1.5000000000000007 0.40192378864668404 3.9999999999999996
    vertex 2.2235428646924356 5.897777478867204 3.9999999999999996
  endloop
endfacet
facet normal 0.0 0.0 1.0
  outer loop
    vertex 2.2235428646924356 5.897777478867204 3.9999999999999996
    vertex 1.5000000000000007 0.40192378864668404 3.9999999999999996
    vertex 2.2235428646924387 0.10222252113279526 3.9999999999999996
  endloop
endfacet
facet normal 0.0 0.0 1.0
  outer loop
    vertex 2.2235428646924356 5.897777478867204 3.9999999999999996
    vertex 2.2235428646924387 0.10222252113279526 3.9999999999999996
    vertex 3.0 6.0 3.9999999999999996
  endloop
endfacet
facet normal 0.0 0.0 1.0
  outer loop
    vertex 3.0 6.0 3.9999999999999996
    vertex 2.2235428646924387 0.10222252113279526 3.9999999999999996
    vertex 3.0000000000000004 3.524958103184872e-16 3.9999999999999996
  endloop
endfacet
facet normal 0.0 0.0 1.0
  outer loop
    vertex 3.0 6.0 3.9999999999999996
    vertex 3.0000000000000004 3.524958103184872e-16 3.9999999999999996
    vertex 3.776457135307562 5.897777478867205 3.9999999999999996
  endloop
endfacet
facet normal 0.0 0.0 1.0
  outer loop
    vertex 3.776457135307562 5.897777478867205 3.9999999999999996
    vertex 3.0000000000000004 3.524958103184872e-16 3.9999999999999996
    vertex 3.7764571353075636 0.1022225211327956 3.9999999999999996
  endloop
endfacet
facet normal 0.0 0.0 1.0
  outer loop
    vertex 3.776457135307562 5.897777478867205 3.9999999999999996
    vertex 3.7764571353075636 0.1022225211327956 3.9999999999999996
    vertex 4.5 5.598076211353316 3.9999999999999996
  endloop
endfacet
facet normal 0.0 0.0 1.0
  outer loop
    vertex 4.5 5.598076211353316 3.9999999999999996
    vertex 3.7764571353075636 0.1022225211327956 3.9999999999999996
    vertex 4.500000000000002 0.40192378864668477 3.9999999999999996
  endloop
endfacet
facet normal 0.0 0.0 1.0
  outer loop
    vertex 4.5 5.598076211353316 3.9999999999999996
    vertex 4.500000000000002 0.40192378864668477 3.9999999999999996
    vertex 5.121320343559642 5.121320343559642 3.9999999999999996
  endloop
endfacet
facet normal 0.0 0.0 1.0
  outer loop
    vertex 5.121320343559642 5.121320343559642 3.9999999999999996
    vertex 4.500000000000002 0.40192378864668477 3.9999999999999996
    vertex 5.121320343559643 0.878679656440358 3.9999999999999996
  endloop
endfacet
facet normal 0.0 0.0 1.0
  outer loop
    vertex 5.121320343559642 5.121320343559642 3.9999999999999996
    vertex 5.121320343559643 0.878679656440358 3.9999999999999996
    vertex 5.598076211353316 4.5 3.9999999999999996
  endloop
endfacet
facet normal 0.0 0.0 1.0
  outer loop
    vertex 5.598076211353316 4.5 3.9999999999999996
    vertex 5.121320343559643 0.878679656440358 3.9999999999999996
    vertex 5.598076211353316 1.5000000000000009 3.9999999999999996
  endloop
endfacet
facet normal 0.0 0.0 1.0
  outer loop
    vertex 5.598076211353316 4.5 3.9999999999999996
    vertex 5.598076211353316 1.5000000000000009 3.9999999999999996
    vertex 5.897777478867205 2.2235428646924382 3.9999999999999996
  endloop
endfacet
facet normal 0.0 0.0 1.0
  outer loop
    vertex 5.598076211353316 4.5 3.9999999999999996
    vertex 5.897777478867205 2.2235428646924382 3.9999999999999996
    vertex 5.897777478867205 3.7764571353075627 3.9999999999999996
  endloop
endfacet
facet normal 0.0 0.0 1.0
  outer loop
    vertex 5.897777478867205 3.7764571353075627 3.9999999999999996
    vertex 5.897777478867205 2.2235428646924382 3.9999999999999996
    vertex 6.0 3.0000000000000004 3.9999999999999996
  endloop
endfacet
facet normal 2.132008237882162e-33 -1.0 1.1749860343949574e-16
  outer loop
    vertex 6.0 0.0 0.9999999999999999
    vertex 0.0 0.0 0.0
    vertex 6.0 0.0 0.0
  endloop
endfacet
facet normal 2.132008237882162e-33 -1.0 1.1749860343949574e-16
  outer loop
    vertex 0.0 0.0 0.0
    vertex 6.0 0.0 0.9999999999999999
    vertex 0.0 0.0 0.9999999999999999
  endloop
endfacet
facet normal 2.132008237882162e-33 -1.0 1.1749860343949574e-16
  outer loop
    vertex 0.0 0.0 0.9999999999999999
    vertex 6.0 0.0 0.9999999999999999
    vertex 3.0000000000000004 3.524958103184872e-16 0.9999999999999999
  endloop
endfacet
facet normal 0.0 1.0 0.0
  outer loop
    vertex 0.0 6.0 0.9999999999999999
    vertex 6.0 6.0 0.0
    vertex 0.0 6.0 0.0
  endloop
endfacet
facet normal 0.0 1.0 0.0
  outer loop
    vertex 6.0 6.0 0.0
    vertex 0.0 6.0 0.9999999999999999
    vertex 6.0 6.0 0.9999999999999999
  endloop
endfacet
facet normal 0.0 1.0 0.0
  outer loop
    vertex 6.0 6.0 0.9999999999999999
    vertex 0.0 6.0 0.9999999999999999
    vertex 3.0 6.0 0.9999999999999999
  endloop
endfacet
facet normal 0.0 0.0 1.0
  outer loop
    vertex 3.776457135307562 5.897777478867205 0.9999999999999999
    vertex 6.0 6.0 0.9999999999999999
    vertex 3.0 6.0 0.9999999999999999
  endloop
endfacet
facet normal 0.0 0.0 1.0
  outer loop
    vertex 6.0 6.0 0.9999999999999999
    vertex 3.776457135307562 5.897777478867205 0.9999999999999999
    vertex 4.5 5.598076211353316 0.9999999999999999
  endloop
endfacet
facet normal 0.0 0.0 1.0
  outer loop
    vertex 6.0 6.0 0.9999999999999999
    vertex 4.5 5.598076211353316 0.9999999999999999
    vertex 5.121320343559642 5.121320343559642 0.9999999999999999
  endloop
endfacet
facet normal 0.0 0.0 1.0
  outer loop
    vertex 6.0 6.0 0.9999999999999999
    vertex 5.121320343559642 5.121320343559642 0.9999999999999999
    vertex 5.598076211353316 4.5 0.9999999999999999
  endloop
endfacet
facet normal 0.0 0.0 1.0
  outer loop
    vertex 6.0 6.0 0.9999999999999999
    vertex 5.598076211353316 4.5 0.9999999999999999
    vertex 5.897777478867205 3.7764571353075627 0.9999999999999999
  endloop
endfacet
facet normal 0.0 0.0 1.0
  outer loop
    vertex 6.0 6.0 0.9999999999999999
    vertex 5.897777478867205 3.7764571353075627 0.9999999999999999
    vertex 6.0 3.0000000000000004 0.9999999999999999
  endloop
endfacet
facet normal 1.0 0.0 0.0
  outer loop
    vertex 6.0 6.0 0.0
    vertex 6.0 0.0 0.9999999999999999
    vertex 6.0 0.0 0.0
  endloop
endfacet
facet normal 1.0 0.0 0.0
  outer loop
    vertex 6.0 0.0 0.9999999999999999
    vertex 6.0 6.0 0.0
    vertex 6.0 3.0000000000000004 0.9999999999999999
  endloop
endfacet
facet normal 1.0 0.0 0.0
  outer loop
    vertex 6.0 3.0000000000000004 0.9999999999999999
    vertex 6.0 6.0 0.0
    vertex 6.0 6.0 0.9999999999999999
  endloop
endfacet
facet normal -1.0 0.0 0.0
  outer loop
    vertex 0.0 2.9999999999999996 0.9999999999999999
    vertex 0.0 0.0 0.0
    vertex 0.0 0.0 0.9999999999999999
  endloop
endfacet
facet normal -1.0 0.0 0.0
  outer loop
    vertex 0.0 0.0 0.0
    vertex 0.0 2.9999999999999996 0.9999999999999999
    vertex 0.0 6.0 0.0
  endloop
endfacet
facet normal -1.0 0.0 0.0
  outer loop
    vertex 0.0 6.0 0.0
    vertex 0.0 2.9999999999999996 0.9999999999999999
    vertex 0.0 6.0 0.9999999999999999
  endloop
endfacet
endsolid button
