solid button
facet normal 0.0 0.0 -1.0
  outer loop
    vertex 6.0 6.0 -3.9999999999999996
    vertex 0.0 0.0 -3.9999999999999996
    vertex 0.0 6.0 -3.9999999999999996
  endloop
endfacet
facet normal 0.0 0.0 -1.0
  outer loop
    vertex 0.0 0.0 -3.9999999999999996
    vertex 6.0 6.0 -3.9999999999999996
    vertex 6.0 0.0 -3.9999999999999996
  endloop
endfacet
facet normal 0.0 1.0 0.0
  outer loop
    vertex 0.0 6.0 -0.9999999999999996
    vertex 6.0 6.0 -3.9999999999999996
    vertex 0.0 6.0 -3.9999999999999996
  endloop
endfacet
facet normal 0.0 1.0 0.0
  outer loop
    vertex 6.0 6.0 -3.9999999999999996
    vertex 0.0 6.0 -0.9999999999999996
    vertex 6.0 6.0 -0.9999999999999996
  endloop
endfacet
facet normal -1.0 0.0 0.0
  outer loop
    vertex 0.0 6.0 -0.9999999999999996
    vertex 0.0 0.0 -3.9999999999999996
    vertex 0.0 0.0 -0.9999999999999996
  endloop
endfacet
facet normal -1.0 0.0 0.0
  outer loop
    vertex 0.0 0.0 -3.9999999999999996
    vertex 0.0 6.0 -0.9999999999999996
    vertex 0.0 6.0 -3.9999999999999996
  endloop
endfacet
facet normal -0.0 -1.0 -0.0
  outer loop
    vertex 6.0 0.0 -0.9999999999999996
    vertex 0.0 0.0 -3.9999999999999996
    vertex 6.0 0.0 -3.9999999999999996
  endloop
endfacet
facet normal -0.0 -1.0 -0.0
  outer loop
    vertex 0.0 0.0 -3.9999999999999996
    vertex 6.0 0.0 -0.9999999999999996
    vertex 0.0 0.0 -0.9999999999999996
  endloop
endfacet
facet normal 1.0 0.0 0.0
  outer loop
    vertex 6.0 6.0 -3.9999999999999996
    vertex 6.0 0.0 -0.9999999999999996
    vertex 6.0 0.0 -3.9999999999999996
  endloop
endfacet
facet normal 1.0 0.0 0.0
  outer loop
    vertex 6.0 0.0 -0.9999999999999996
    vertex 6.0 6.0 -3.9999999999999996
    vertex 6.0 6.0 -0.9999999999999996
  endloop
endfacet
facet normal 0.0 0.0 1.0
  outer loop
    vertex 0.0 0.0 -0.9999999999999996
    vertex 1.0681483474218638 2.4823619097949567 -0.9999999999999996
    vertex 0.0 6.0 -0.9999999999999996
  endloop
endfacet
facet normal 0.0 0.0 1.0
  outer loop
    vertex 1.0681483474218638 2.4823619097949567 -0.9999999999999996
    vertex 0.0 0.0 -0.9999999999999996
    vertex 1.2679491924311228 1.9999999999999991 -0.9999999999999996
  endloop
endfacet
facet normal 0.0 0.0 1.0
  outer loop
    vertex 1.2679491924311228 1.9999999999999991 -0.9999999999999996
    vertex 0.0 0.0 -0.9999999999999996
    vertex 1.585786437626905 1.5857864376269046 -0.9999999999999996
  endloop
endfacet
facet normal 0.0 0.0 1.0
  outer loop
    vertex 1.585786437626905 1.5857864376269046 -0.9999999999999996
    vertex 0.0 0.0 -0.9999999999999996
    vertex 2.0000000000000013 1.2679491924311217 -0.9999999999999996
  endloop
endfacet
facet normal 0.0 0.0 1.0
  outer loop
    vertex 2.0000000000000013 1.2679491924311217 -0.9999999999999996
    vertex 0.0 0.0 -0.9999999999999996
    vertex 2.4823619097949594 1.0681483474218632 -0.9999999999999996
  endloop
endfacet
facet normal 0.0 0.0 1.0
  outer loop
    vertex 2.4823619097949594 1.0681483474218632 -0.9999999999999996
    vertex 0.0 0.0 -0.9999999999999996
    vertex 6.0 0.0 -0.9999999999999996
  endloop
endfacet
facet normal 0.0 0.0 1.0
  outer loop
    vertex 0.0 6.0 -0.9999999999999996
    vertex 1.0681483474218638 2.4823619097949567 -0.9999999999999996
    vertex 0.9999999999999996 2.9999999999999996 -0.9999999999999996
  endloop
endfacet
facet normal 0.0 0.0 1.0
  outer loop
    vertex 2.4823619097949594 1.0681483474218632 -0.9999999999999996
    vertex 6.0 0.0 -0.9999999999999996
    vertex 3.000000000000001 1.0000000000000002 -0.9999999999999996
  endloop
endfacet
facet normal 0.0 0.0 1.0
  outer loop
    vertex 3.000000000000001 1.0000000000000002 -0.9999999999999996
    vertex 6.0 0.0 -0.9999999999999996
    vertex 3.5176380902050424 1.0681483474218634 -0.9999999999999996
  endloop
endfacet
facet normal 0.0 0.0 1.0
  outer loop
    vertex 3.5176380902050424 1.0681483474218634 -0.9999999999999996
    vertex 6.0 0.0 -0.9999999999999996
    vertex 4.000000000000001 1.2679491924311233 -0.9999999999999996
  endloop
endfacet
facet normal 0.0 0.0 1.0
  outer loop
    vertex 4.000000000000001 1.2679491924311233 -0.9999999999999996
    vertex 6.0 0.0 -0.9999999999999996
    vertex 4.414213562373095 1.5857864376269053 -0.9999999999999996
  endloop
endfacet
facet normal 0.0 0.0 1.0
  outer loop
    vertex 4.414213562373095 1.5857864376269053 -0.9999999999999996
    vertex 6.0 0.0 -0.9999999999999996
    vertex 4.732050807568878 2.0000000000000004 -0.9999999999999996
  endloop
endfacet
facet normal 0.0 0.0 1.0
  outer loop
    vertex 4.732050807568878 2.0000000000000004 -0.9999999999999996
    vertex 6.0 0.0 -0.9999999999999996
    vertex 4.931851652578137 2.4823619097949594 -0.9999999999999996
  endloop
endfacet
facet normal 0.0 0.0 1.0
  outer loop
    vertex 4.931851652578137 2.4823619097949594 -0.9999999999999996
    vertex 6.0 0.0 -0.9999999999999996
    vertex 5.0 3.0 -0.9999999999999996
  endloop
endfacet
facet normal 0.0 0.0 1.0
  outer loop
    vertex 0.0 6.0 -0.9999999999999996
    vertex 2.4823619097949585 4.931851652578137 -0.9999999999999996
    vertex 6.0 6.0 -0.9999999999999996
  endloop
endfacet
facet normal 0.0 0.0 1.0
  outer loop
    vertex 2.4823619097949585 4.931851652578137 -0.9999999999999996
    vertex 0.0 6.0 -0.9999999999999996
    vertex 2.0 4.732050807568877 -0.9999999999999996
  endloop
endfacet
facet normal 0.0 0.0 1.0
  outer loop
    vertex 2.0 4.732050807568877 -0.9999999999999996
    vertex 0.0 6.0 -0.9999999999999996
    vertex 1.585786437626905 4.414213562373095 -0.9999999999999996
  endloop
endfacet
facet normal 0.0 0.0 1.0
  outer loop
    vertex 1.585786437626905 4.414213562373095 -0.9999999999999996
    vertex 0.0 6.0 -0.9999999999999996
    vertex 1.2679491924311217 3.999999999999999 -0.9999999999999996
  endloop
endfacet
facet normal 0.0 0.0 1.0
  outer loop
    vertex 1.2679491924311217 3.999999999999999 -0.9999999999999996
    vertex 0.0 6.0 -0.9999999999999996
    vertex 1.0681483474218632 3.5176380902050406 -0.9999999999999996
  endloop
endfacet
facet normal 0.0 0.0 1.0
  outer loop
    vertex 1.0681483474218632 3.5176380902050406 -0.9999999999999996
    vertex 0.0 6.0 -0.9999999999999996
    vertex 0.9999999999999996 2.9999999999999996 -0.9999999999999996
  endloop
endfacet
facet normal 0.0 0.0 1.0
  outer loop
    vertex 6.0 6.0 -0.9999999999999996
    vertex 2.4823619097949585 4.931851652578137 -0.9999999999999996
    vertex 3.0 5.000000000000001 -0.9999999999999996
  endloop
endfacet
facet normal 0.0 0.0 1.0
  outer loop
    vertex 6.0 6.0 -0.9999999999999996
    vertex 3.0 5.000000000000001 -0.9999999999999996
    vertex 3.5176380902050415 4.931851652578137 -0.9999999999999996
  endloop
endfacet
facet normal 0.0 0.0 1.0
  outer loop
    vertex 6.0 6.0 -0.9999999999999996
    vertex 3.5176380902050415 4.931851652578137 -0.9999999999999996
    vertex 3.9999999999999996 4.732050807568878 -0.9999999999999996
  endloop
endfacet
facet normal 0.0 0.0 1.0
  outer loop
    vertex 6.0 6.0 -0.9999999999999996
    vertex 3.9999999999999996 4.732050807568878 -0.9999999999999996
    vertex 4.414213562373095 4.414213562373095 -0.9999999999999996
  endloop
endfacet
facet normal 0.0 0.0 1.0
  outer loop
    vertex 6.0 6.0 -0.9999999999999996
    vertex 4.414213562373095 4.414213562373095 -0.9999999999999996
    vertex 4.732050807568877 4.0 -0.9999999999999996
  endloop
endfacet
facet normal 0.0 0.0 1.0
  outer loop
    vertex 6.0 6.0 -0.9999999999999996
    vertex 4.732050807568877 4.0 -0.9999999999999996
    vertex 4.931851652578137 3.517638090205043 -0.9999999999999996
  endloop
endfacet
facet normal 0.0 0.0 1.0
  outer loop
    vertex 6.0 6.0 -0.9999999999999996
    vertex 4.931851652578137 3.517638090205043 -0.9999999999999996
    vertex 5.0 3.0 -0.9999999999999996
  endloop
endfacet
facet normal 0.0 0.0 1.0
  outer loop
    vertex 6.0 6.0 -0.9999999999999996
    vertex 5.0 3.0 -0.9999999999999996
    vertex 6.0 0.0 -0.9999999999999996
  endloop
endfacet
facet normal -3.26164902766728e-31 3.6240544751858717e-32 1.0
  outer loop
    vertex 1.0681483474218638 2.4823619097949567 0.0
    vertex 1.0681483474218632 3.5176380902050406 0.0
    vertex 0.9999999999999996 2.9999999999999996 0.0
  endloop
endfacet
facet normal -3.26164902766728e-31 3.6240544751858717e-32 1.0
  outer loop
    vertex 1.0681483474218632 3.5176380902050406 0.0
    vertex 1.0681483474218638 2.4823619097949567 0.0
    vertex 1.2679491924311217 3.999999999999999 0.0
  endloop
endfacet
facet normal -3.26164902766728e-31 3.6240544751858717e-32 1.0
  outer loop
    vertex 1.2679491924311217 3.999999999999999 0.0
    vertex 1.0681483474218638 2.4823619097949567 0.0
    vertex 1.2679491924311228 1.9999999999999991 0.0
  endloop
endfacet
facet normal -3.26164902766728e-31 3.6240544751858717e-32 1.0
  outer loop
    vertex 1.2679491924311217 3.999999999999999 0.0
    vertex 1.2679491924311228 1.9999999999999991 0.0
    vertex 1.585786437626905 4.414213562373095 0.0
  endloop
endfacet
facet normal -3.26164902766728e-31 3.6240544751858717e-32 1.0
  outer loop
    vertex 1.585786437626905 4.414213562373095 0.0
    vertex 1.2679491924311228 1.9999999999999991 0.0
    vertex 1.585786437626905 1.5857864376269046 0.0
  endloop
endfacet
facet normal -3.26164902766728e-31 3.6240544751858717e-32 1.0
  outer loop
    vertex 1.585786437626905 4.414213562373095 0.0
    vertex 1.585786437626905 1.5857864376269046 0.0
    vertex 2.0000000000000013 1.2679491924311217 0.0
  endloop
endfacet
facet normal -3.26164902766728e-31 3.6240544751858717e-32 1.0
  outer loop
    vertex 1.585786437626905 4.414213562373095 0.0
    vertex 2.0000000000000013 1.2679491924311217 0.0
    vertex 2.0 4.732050807568877 0.0
  endloop
endfacet
facet normal -3.26164902766728e-31 3.6240544751858717e-32 1.0
  outer loop
    vertex 2.0 4.732050807568877 0.0
    vertex 2.0000000000000013 1.2679491924311217 0.0
    vertex 2.4823619097949585 4.931851652578137 0.0
  endloop
endfacet
facet normal -3.26164902766728e-31 3.6240544751858717e-32 1.0
  outer loop
    vertex 2.4823619097949585 4.931851652578137 0.0
    vertex 2.0000000000000013 1.2679491924311217 0.0
    vertex 2.4823619097949594 1.0681483474218632 0.0
  endloop
endfacet
facet normal -3.26164902766728e-31 3.6240544751858717e-32 1.0
  outer loop
    vertex 2.4823619097949585 4.931851652578137 0.0
    vertex 2.4823619097949594 1.0681483474218632 0.0
    vertex 3.0 5.000000000000001 0.0
  endloop
endfacet
facet normal -3.26164902766728e-31 3.6240544751858717e-32 1.0
  outer loop
    vertex 3.0 5.000000000000001 0.0
    vertex 2.4823619097949594 1.0681483474218632 0.0
    vertex 3.000000000000001 1.0000000000000002 0.0
  endloop
endfacet
facet normal -3.26164902766728e-31 3.6240544751858717e-32 1.0
  outer loop
    vertex 3.0 5.000000000000001 0.0
    vertex 3.000000000000001 1.0000000000000002 0.0
    vertex 3.5176380902050415 4.931851652578137 0.0
  endloop
endfacet
facet normal -3.26164902766728e-31 3.6240544751858717e-32 1.0
  outer loop
    vertex 3.5176380902050415 4.931851652578137 0.0
    vertex 3.000000000000001 1.0000000000000002 0.0
    vertex 3.5176380902050424 1.0681483474218634 0.0
  endloop
endfacet
facet normal -3.26164902766728e-31 3.6240544751858717e-32 1.0
  outer loop
    vertex 3.5176380902050415 4.931851652578137 0.0
    vertex 3.5176380902050424 1.0681483474218634 0.0
    vertex 3.9999999999999996 4.732050807568878 0.0
  endloop
endfacet
facet normal -3.26164902766728e-31 3.6240544751858717e-32 1.0
  outer loop
    vertex 3.9999999999999996 4.732050807568878 0.0
    vertex 3.5176380902050424 1.0681483474218634 0.0
    vertex 4.000000000000001 1.2679491924311233 0.0
  endloop
endfacet
facet normal -3.26164902766728e-31 3.6240544751858717e-32 1.0
  outer loop
    vertex 3.9999999999999996 4.732050807568878 0.0
    vertex 4.000000000000001 1.2679491924311233 0.0
    vertex 4.414213562373095 4.414213562373095 0.0
  endloop
endfacet
facet normal -3.26164902766728e-31 3.6240544751858717e-32 1.0
  outer loop
    vertex 4.414213562373095 4.414213562373095 0.0
    vertex 4.000000000000001 1.2679491924311233 0.0
    vertex 4.414213562373095 1.5857864376269053 0.0
  endloop
endfacet
facet normal -3.26164902766728e-31 3.6240544751858717e-32 1.0
  outer loop
    vertex 4.414213562373095 4.414213562373095 0.0
    vertex 4.414213562373095 1.5857864376269053 0.0
    vertex 4.732050807568878 2.0000000000000004 0.0
  endloop
endfacet
facet normal -3.26164902766728e-31 3.6240544751858717e-32 1.0
  outer loop
    vertex 4.414213562373095 4.414213562373095 0.0
    vertex 4.732050807568878 2.0000000000000004 0.0
    vertex 4.732050807568877 4.0 0.0
  endloop
endfacet
facet normal -3.26164902766728e-31 3.6240544751858717e-32 1.0
  outer loop
    vertex 4.732050807568877 4.0 0.0
    vertex 4.732050807568878 2.0000000000000004 0.0
    vertex 4.931851652578137 3.517638090205043 0.0
  endloop
endfacet
facet normal -3.26164902766728e-31 3.6240544751858717e-32 1.0
  outer loop
    vertex 4.931851652578137 3.517638090205043 0.0
    vertex 4.732050807568878 2.0000000000000004 0.0
    vertex 4.931851652578137 2.4823619097949594 0.0
  endloop
endfacet
facet normal -3.26164902766728e-31 3.6240544751858717e-32 1.0
  outer loop
    vertex 4.931851652578137 3.517638090205043 0.0
    vertex 4.931851652578137 2.4823619097949594 0.0
    vertex 5.0 3.0 0.0
  endloop
endfacet
facet normal 0.9914448613738106 -0.13052619222005055 3.2810485711900153e-31
  outer loop
    vertex 5.0 3.0 -0.9999999999999996
    vertex 4.931851652578137 2.4823619097949594 0.0
    vertex 4.931851652578137 2.4823619097949594 -0.9999999999999996
  endloop
endfacet
facet normal 0.9914448613738106 -0.13052619222005055 3.2810485711900153e-31
  outer loop
    vertex 4.931851652578137 2.4823619097949594 0.0
    vertex 5.0 3.0 -0.9999999999999996
    vertex 5.0 3.0 0.0
  endloop
endfacet
facet normal 0.9238795325112867 -0.3826834323650899 3.1520573394613595e-31
  outer loop
    vertex 4.931851652578137 2.4823619097949594 -0.9999999999999996
    vertex 4.732050807568878 2.0000000000000004 0.0
    vertex 4.732050807568878 2.0000000000000004 -0.9999999999999996
  endloop
endfacet
facet normal 0.9238795325112867 -0.3826834323650899 3.1520573394613595e-31
  outer loop
    vertex 4.732050807568878 2.0000000000000004 0.0
    vertex 4.931851652578137 2.4823619097949594 -0.9999999999999996
    vertex 4.931851652578137 2.4823619097949594 0.0
  endloop
endfacet
facet normal 0.793353340291235 -0.6087614290087208 2.808258609069455e-31
  outer loop
    vertex 4.732050807568878 2.0000000000000004 -0.9999999999999996
    vertex 4.414213562373095 1.5857864376269053 0.0
    vertex 4.414213562373095 1.5857864376269053 -0.9999999999999996
  endloop
endfacet
facet normal 0.793353340291235 -0.6087614290087208 2.808258609069455e-31
  outer loop
    vertex 4.414213562373095 1.5857864376269053 0.0
    vertex 4.732050807568878 2.0000000000000004 -0.9999999999999996
    vertex 4.732050807568878 2.0000000000000004 0.0
  endloop
endfacet
facet normal 0.6087614290087213 -0.7933533402912346 2.273081695336251e-31
  outer loop
    vertex 4.414213562373095 1.5857864376269053 0.0
    vertex 4.000000000000001 1.2679491924311233 -0.9999999999999996
    vertex 4.414213562373095 1.5857864376269053 -0.9999999999999996
  endloop
endfacet
facet normal 0.6087614290087213 -0.7933533402912346 2.273081695336251e-31
  outer loop
    vertex 4.000000000000001 1.2679491924311233 -0.9999999999999996
    vertex 4.414213562373095 1.5857864376269053 0.0
    vertex 4.000000000000001 1.2679491924311233 0.0
  endloop
endfacet
facet normal 0.9914448613738106 0.1305261922200501 3.1864417649812063e-31
  outer loop
    vertex 4.931851652578137 3.517638090205043 -0.9999999999999996
    vertex 5.0 3.0 0.0
    vertex 5.0 3.0 -0.9999999999999996
  endloop
endfacet
facet normal 0.9914448613738106 0.1305261922200501 3.1864417649812063e-31
  outer loop
    vertex 5.0 3.0 0.0
    vertex 4.931851652578137 3.517638090205043 -0.9999999999999996
    vertex 4.931851652578137 3.517638090205043 0.0
  endloop
endfacet
facet normal 0.9238795325112861 0.38268343236509184 2.8746842183329176e-31
  outer loop
    vertex 4.732050807568877 4.0 -0.9999999999999996
    vertex 4.931851652578137 3.517638090205043 0.0
    vertex 4.931851652578137 3.517638090205043 -0.9999999999999996
  endloop
endfacet
facet normal 0.9238795325112861 0.38268343236509184 2.8746842183329176e-31
  outer loop
    vertex 4.931851652578137 3.517638090205043 0.0
    vertex 4.732050807568877 4.0 -0.9999999999999996
    vertex 4.732050807568877 4.0 0.0
  endloop
endfacet
facet normal 0.7933533402912354 0.6087614290087205 2.3670216928455367e-31
  outer loop
    vertex 4.414213562373095 4.414213562373095 -0.9999999999999996
    vertex 4.732050807568877 4.0 0.0
    vertex 4.732050807568877 4.0 -0.9999999999999996
  endloop
endfacet
facet normal 0.7933533402912354 0.6087614290087205 2.3670216928455367e-31
  outer loop
    vertex 4.732050807568877 4.0 0.0
    vertex 4.414213562373095 4.414213562373095 -0.9999999999999996
    vertex 4.414213562373095 4.414213562373095 0.0
  endloop
endfacet
facet normal 0.6087614290087208 0.7933533402912353 1.698050550679027e-31
  outer loop
    vertex 3.9999999999999996 4.732050807568878 0.0
    vertex 4.414213562373095 4.414213562373095 -0.9999999999999996
    vertex 3.9999999999999996 4.732050807568878 -0.9999999999999996
  endloop
endfacet
facet normal 0.6087614290087208 0.7933533402912353 1.698050550679027e-31
  outer loop
    vertex 4.414213562373095 4.414213562373095 -0.9999999999999996
    vertex 3.9999999999999996 4.732050807568878 0.0
    vertex 4.414213562373095 4.414213562373095 0.0
  endloop
endfacet
facet normal 0.3826834323650902 0.9238795325112867 9.13360069644958e-32
  outer loop
    vertex 3.5176380902050415 4.931851652578137 0.0
    vertex 3.9999999999999996 4.732050807568878 -0.9999999999999996
    vertex 3.5176380902050415 4.931851652578137 -0.9999999999999996
  endloop
endfacet
facet normal 0.3826834323650902 0.9238795325112867 9.13360069644958e-32
  outer loop
    vertex 3.9999999999999996 4.732050807568878 -0.9999999999999996
    vertex 3.5176380902050415 4.931851652578137 0.0
    vertex 3.9999999999999996 4.732050807568878 0.0
  endloop
endfacet
facet normal 0.1305261922200518 0.9914448613738104 6.642560926346505e-33
  outer loop
    vertex 3.0 5.000000000000001 0.0
    vertex 3.5176380902050415 4.931851652578137 -0.9999999999999996
    vertex 3.0 5.000000000000001 -0.9999999999999996
  endloop
endfacet
facet normal 0.1305261922200518 0.9914448613738104 6.642560926346505e-33
  outer loop
    vertex 3.5176380902050415 4.931851652578137 -0.9999999999999996
    vertex 3.0 5.000000000000001 0.0
    vertex 3.5176380902050415 4.931851652578137 0.0
  endloop
endfacet
facet normal -0.1305261922200517 0.9914448613738105 -7.850356466158237e-32
  outer loop
    vertex 2.4823619097949585 4.931851652578137 0.0
    vertex 3.0 5.000000000000001 -0.9999999999999996
    vertex 2.4823619097949585 4.931851652578137 -0.9999999999999996
  endloop
endfacet
facet normal -0.1305261922200517 0.9914448613738105 -7.850356466158237e-32
  outer loop
    vertex 3.0 5.000000000000001 -0.9999999999999996
    vertex 2.4823619097949585 4.931851652578137 0.0
    vertex 3.0 5.000000000000001 0.0
  endloop
endfacet
facet normal -0.3826834323650913 0.9238795325112861 -1.5829980205109928e-31
  outer loop
    vertex 2.0 4.732050807568877 0.0
    vertex 2.4823619097949585 4.931851652578137 -0.9999999999999996
    vertex 2.0 4.732050807568877 -0.9999999999999996
  endloop
endfacet
facet normal -0.3826834323650913 0.9238795325112861 -1.5829980205109928e-31
  outer loop
    vertex 2.4823619097949585 4.931851652578137 -0.9999999999999996
    vertex 2.0 4.732050807568877 0.0
    vertex 2.4823619097949585 4.931851652578137 0.0
  endloop
endfacet
facet normal -0.6087614290087201 0.7933533402912355 -2.273081695336247e-31
  outer loop
    vertex 1.585786437626905 4.414213562373095 0.0
    vertex 2.0 4.732050807568877 -0.9999999999999996
    vertex 1.585786437626905 4.414213562373095 -0.9999999999999996
  endloop
endfacet
facet normal -0.6087614290087201 0.7933533402912355 -2.273081695336247e-31
  outer loop
    vertex 2.0 4.732050807568877 -0.9999999999999996
    vertex 1.585786437626905 4.414213562373095 0.0
    vertex 2.0 4.732050807568877 0.0
  endloop
endfacet
facet normal -0.7933533402912352 0.6087614290087209 -2.808258609069456e-31
  outer loop
    vertex 1.585786437626905 4.414213562373095 0.0
    vertex 1.2679491924311217 3.999999999999999 -0.9999999999999996
    vertex 1.2679491924311217 3.999999999999999 0.0
  endloop
endfacet
facet normal -0.7933533402912352 0.6087614290087209 -2.808258609069456e-31
  outer loop
    vertex 1.2679491924311217 3.999999999999999 -0.9999999999999996
    vertex 1.585786437626905 4.414213562373095 0.0
    vertex 1.585786437626905 4.414213562373095 -0.9999999999999996
  endloop
endfacet
facet normal -0.9238795325112871 0.38268343236508895 -3.1520573394613595e-31
  outer loop
    vertex 1.2679491924311217 3.999999999999999 0.0
    vertex 1.0681483474218632 3.5176380902050406 -0.9999999999999996
    vertex 1.0681483474218632 3.5176380902050406 0.0
  endloop
endfacet
facet normal -0.9238795325112871 0.38268343236508895 -3.1520573394613595e-31
  outer loop
    vertex 1.0681483474218632 3.5176380902050406 -0.9999999999999996
    vertex 1.2679491924311217 3.999999999999999 0.0
    vertex 1.2679491924311217 3.999999999999999 -0.9999999999999996
  endloop
endfacet
facet normal -0.9914448613738104 0.1305261922200518 -3.281048571190015e-31
  outer loop
    vertex 1.0681483474218632 3.5176380902050406 0.0
    vertex 0.9999999999999996 2.9999999999999996 -0.9999999999999996
    vertex 0.9999999999999996 2.9999999999999996 0.0
  endloop
endfacet
facet normal -0.9914448613738104 0.1305261922200518 -3.281048571190015e-31
  outer loop
    vertex 0.9999999999999996 2.9999999999999996 -0.9999999999999996
    vertex 1.0681483474218632 3.5176380902050406 0.0
    vertex 1.0681483474218632 3.5176380902050406 -0.9999999999999996
  endloop
endfacet
facet normal -0.9914448613738104 -0.1305261922200528 -3.1864417649812045e-31
  outer loop
    vertex 0.9999999999999996 2.9999999999999996 0.0
    vertex 1.0681483474218638 2.4823619097949567 -0.9999999999999996
    vertex 1.0681483474218638 2.4823619097949567 0.0
  endloop
endfacet
facet normal -0.9914448613738104 -0.1305261922200528 -3.1864417649812045e-31
  outer loop
    vertex 1.0681483474218638 2.4823619097949567 -0.9999999999999996
    vertex 0.9999999999999996 2.9999999999999996 0.0
    vertex 0.9999999999999996 2.9999999999999996 -0.9999999999999996
  endloop
endfacet
facet normal -0.9238795325112867 -0.3826834323650901 -2.8746842183329203e-31
  outer loop
    vertex 1.0681483474218638 2.4823619097949567 0.0
    vertex 1.2679491924311228 1.9999999999999991 -0.9999999999999996
    vertex 1.2679491924311228 1.9999999999999991 0.0
  endloop
endfacet
facet normal -0.9238795325112867 -0.3826834323650901 -2.8746842183329203e-31
  outer loop
    vertex 1.2679491924311228 1.9999999999999991 -0.9999999999999996
    vertex 1.0681483474218638 2.4823619097949567 0.0
    vertex 1.0681483474218638 2.4823619097949567 -0.9999999999999996
  endloop
endfacet
facet normal -0.7933533402912347 -0.6087614290087212 -2.367021692845534e-31
  outer loop
    vertex 1.2679491924311228 1.9999999999999991 0.0
    vertex 1.585786437626905 1.5857864376269046 -0.9999999999999996
    vertex 1.585786437626905 1.5857864376269046 0.0
  endloop
endfacet
facet normal -0.7933533402912347 -0.6087614290087212 -2.367021692845534e-31
  outer loop
    vertex 1.585786437626905 1.5857864376269046 -0.9999999999999996
    vertex 1.2679491924311228 1.9999999999999991 0.0
    vertex 1.2679491924311228 1.9999999999999991 -0.9999999999999996
  endloop
endfacet
facet normal -0.6087614290087204 -0.7933533402912353 -1.698050550679026e-31
  outer loop
    vertex 2.0000000000000013 1.2679491924311217 0.0
    vertex 1.585786437626905 1.5857864376269046 -0.9999999999999996
    vertex 2.0000000000000013 1.2679491924311217 -0.9999999999999996
  endloop
endfacet
facet normal -0.6087614290087204 -0.7933533402912353 -1.698050550679026e-31
  outer loop
    vertex 1.585786437626905 1.5857864376269046 -0.9999999999999996
    vertex 2.0000000000000013 1.2679491924311217 0.0
    vertex 1.585786437626905 1.5857864376269046 0.0
  endloop
endfacet
facet normal -0.38268343236508895 -0.9238795325112871 -9.133600696449537e-32
  outer loop
    vertex 2.4823619097949594 1.0681483474218632 0.0
    vertex 2.0000000000000013 1.2679491924311217 -0.9999999999999996
    vertex 2.4823619097949594 1.0681483474218632 -0.9999999999999996
  endloop
endfacet
facet normal -0.38268343236508895 -0.9238795325112871 -9.133600696449537e-32
  outer loop
    vertex 2.0000000000000013 1.2679491924311217 -0.9999999999999996
    vertex 2.4823619097949594 1.0681483474218632 0.0
    vertex 2.0000000000000013 1.2679491924311217 0.0
  endloop
endfacet
facet normal -0.13052619222005046 -0.9914448613738105 -6.642560926346066e-33
  outer loop
    vertex 3.000000000000001 1.0000000000000002 0.0
    vertex 2.4823619097949594 1.0681483474218632 -0.9999999999999996
    vertex 3.000000000000001 1.0000000000000002 -0.9999999999999996
  endloop
endfacet
facet normal -0.13052619222005046 -0.9914448613738105 -6.642560926346066e-33
  outer loop
    vertex 2.4823619097949594 1.0681483474218632 -0.9999999999999996
    vertex 3.000000000000001 1.0000000000000002 0.0
    vertex 2.4823619097949594 1.0681483474218632 0.0
  endloop
endfacet
facet normal 0.13052619222005113 -0.9914448613738105 7.850356466158218e-32
  outer loop
    vertex 3.5176380902050424 1.0681483474218634 0.0
    vertex 3.000000000000001 1.0000000000000002 -0.9999999999999996
    vertex 3.5176380902050424 1.0681483474218634 -0.9999999999999996
  endloop
endfacet
facet normal 0.13052619222005113 -0.9914448613738105 7.850356466158218e-32
  outer loop
    vertex 3.000000000000001 1.0000000000000002 -0.9999999999999996
    vertex 3.5176380902050424 1.0681483474218634 0.0
    vertex 3.000000000000001 1.0000000000000002 0.0
  endloop
endfacet
facet normal 0.3826834323650902 -0.9238795325112866 1.5829980205109897e-31
  outer loop
    vertex 4.000000000000001 1.2679491924311233 0.0
    vertex 3.5176380902050424 1.0681483474218634 -0.9999999999999996
    vertex 4.000000000000001 1.2679491924311233 -0.9999999999999996
  endloop
endfacet
facet normal 0.3826834323650902 -0.9238795325112866 1.5829980205109897e-31
  outer loop
    vertex 3.5176380902050424 1.0681483474218634 -0.9999999999999996
    vertex 4.000000000000001 1.2679491924311233 0.0
    vertex 3.5176380902050424 1.0681483474218634 0.0
  endloop
endfacet
endsolid button
